<?xml version="1.0" encoding="utf-8"?>
<!-- Generator: Adobe Illustrator 16.0.0, SVG Export Plug-In . SVG Version: 6.00 Build 0)  -->
<!DOCTYPE svg PUBLIC "-//W3C//DTD SVG 1.1//EN" "http://www.w3.org/Graphics/SVG/1.1/DTD/svg11.dtd">
<svg version="1.1" id="Layer_1" xmlns="http://www.w3.org/2000/svg" xmlns:xlink="http://www.w3.org/1999/xlink" x="0px" y="0px"
	 width="128px" height="128px" viewBox="0 0 128 128" enable-background="new 0 0 128 128" xml:space="preserve">
<path fill="#CCE7F5" d="M538.899-98.223c0-29.801,24.158-53.958,53.958-53.958c29.801,0,53.959,24.158,53.959,53.958"/>
<rect x="612.86" y="72.066" fill="#FFFFFF" stroke="#6387A0" stroke-width="0.5695" stroke-miterlimit="10" width="86.913" height="10.47"/>
<path fill="#6488A1" d="M699.06,71.17c0,3.541-19.136,6.41-42.743,6.41c-23.605,0-42.742-2.869-42.742-6.41"/>
<circle fill="#FFFFFF" cx="-675.722" cy="216.971" r="50"/>
<polygon fill="#A7A9AC" points="-1259.722,56 -1283.722,56 -1283.722,64 -1275.722,64 -1275.722,88 -1283.722,88 -1283.722,96 
	-1251.722,96 -1251.722,88 -1259.722,88 "/>
<g>
	<defs>
		<rect id="SVGID_1_" x="-1331.722" width="128" height="128"/>
	</defs>
	<clipPath id="SVGID_2_">
		<use xlink:href="#SVGID_1_"  overflow="visible"/>
	</clipPath>
	<path clip-path="url(#SVGID_2_)" fill="#A7A9AC" d="M-1267.722,48c4.418,0,8-3.582,8-8s-3.582-8-8-8s-8,3.582-8,8
		S-1272.14,48-1267.722,48"/>
	<path clip-path="url(#SVGID_2_)" fill="#A7A9AC" d="M-1267.722,8c-30.926,0-56,25.074-56,56s25.074,56,56,56s56-25.074,56-56
		S-1236.796,8-1267.722,8 M-1267.722,116c-28.673,0-52-23.327-52-52s23.327-52,52-52s52,23.327,52,52S-1239.049,116-1267.722,116"/>
</g>
<g>
	<g>
		<circle fill="#A7A9AC" cx="-1153.194" cy="30.527" r="10"/>
		<circle fill="#A7A9AC" cx="-1119.722" cy="30.527" r="10"/>
		<circle fill="#A7A9AC" cx="-1086.249" cy="30.527" r="10"/>
	</g>
	<g>
		<circle fill="#A7A9AC" cx="-1119.722" cy="97.473" r="10"/>
		<circle fill="#A7A9AC" cx="-1119.722" cy="64" r="10"/>
		<circle fill="#A7A9AC" cx="-1119.722" cy="30.527" r="10"/>
	</g>
	<g>
		<circle fill="#A7A9AC" cx="-1153.194" cy="97.473" r="10"/>
		<circle fill="#A7A9AC" cx="-1153.194" cy="64" r="10"/>
		<circle fill="#A7A9AC" cx="-1153.194" cy="30.527" r="10"/>
	</g>
	<g>
		<circle fill="#A7A9AC" cx="-1086.249" cy="97.473" r="10"/>
		<circle fill="#A7A9AC" cx="-1086.249" cy="64" r="10"/>
		<circle fill="#A7A9AC" cx="-1086.249" cy="30.527" r="10"/>
	</g>
</g>
<g>
	<defs>
		<rect id="SVGID_3_" x="-1031.722" y="4" width="120" height="120"/>
	</defs>
	<clipPath id="SVGID_4_">
		<use xlink:href="#SVGID_3_"  overflow="visible"/>
	</clipPath>
	<path clip-path="url(#SVGID_4_)" fill="#A7A9AC" d="M-928.655,20.932c-8.141-8.145-19.391-13.182-31.816-13.182
		s-23.676,5.037-31.816,13.182c-8.145,8.143-13.184,19.393-13.184,31.818c0,3.903,0.498,7.688,1.434,11.3
		c-0.475-0.03-0.952-0.05-1.434-0.05c-6.211,0-11.836,2.52-15.908,6.592c-4.072,4.07-6.592,9.695-6.592,15.908
		c0,6.576,2.52,12.535,6.592,16.846l15.908,16.904V109c6.211,0,11.836-2.52,15.908-6.592c2.969-2.967,5.107-6.762,6.051-11.006
		c6.739,4.027,14.617,6.348,23.041,6.348v22.5l31.816-33.811c8.145-8.621,13.184-20.533,13.184-33.689
		C-915.472,40.325-920.511,29.075-928.655,20.932 M-931.386,83.869l-25.336,26.924V97.75V94h-3.75
		c-8.122,0-15.881-2.339-22.52-6.686c0.009-0.271,0.02-0.541,0.02-0.814c0-6.213-2.52-11.838-6.592-15.908
		c-2.829-2.829-6.409-4.906-10.413-5.913c-1.148-3.819-1.745-7.828-1.745-11.929c0-11.018,4.291-21.375,12.086-29.167
		c7.788-7.792,18.146-12.083,29.164-12.083s21.376,4.291,29.166,12.083c7.793,7.792,12.084,18.149,12.084,29.167
		C-919.222,64.515-923.54,75.565-931.386,83.869"/>
	<path clip-path="url(#SVGID_4_)" fill="#A7A9AC" d="M-960.472,47.125c-3.106,0-5.625,2.518-5.625,5.625s2.519,5.625,5.625,5.625
		s5.625-2.518,5.625-5.625S-957.365,47.125-960.472,47.125"/>
	<path clip-path="url(#SVGID_4_)" fill="#A7A9AC" d="M-941.722,47.125c-3.106,0-5.625,2.518-5.625,5.625s2.519,5.625,5.625,5.625
		s5.625-2.518,5.625-5.625S-938.615,47.125-941.722,47.125"/>
	<path clip-path="url(#SVGID_4_)" fill="#A7A9AC" d="M-979.222,47.125c-3.105,0-5.625,2.518-5.625,5.625s2.52,5.625,5.625,5.625
		s5.625-2.518,5.625-5.625S-976.116,47.125-979.222,47.125"/>
</g>
<g>
	<defs>
		<rect id="SVGID_5_" x="-887.722" width="128" height="128"/>
	</defs>
	<clipPath id="SVGID_6_">
		<use xlink:href="#SVGID_5_"  overflow="visible"/>
	</clipPath>
	<path clip-path="url(#SVGID_6_)" fill="#A7A9AC" d="M-823.722,82.334c20.252,0,36.666-16.414,36.666-36.667S-803.47,9-823.722,9
		s-36.666,16.414-36.666,36.667S-843.974,82.334-823.722,82.334 M-823.722,12.667c18.196,0,33,14.803,33,33
		c0,18.197-14.804,32.999-33,32.999c-18.197,0-33-14.802-33-32.999C-856.722,27.47-841.919,12.667-823.722,12.667"/>
	<path clip-path="url(#SVGID_6_)" fill="#A7A9AC" d="M-794.388,89.666h-58.668c-8.1,0-14.666,6.568-14.666,14.668V119h88v-14.666
		C-779.722,96.234-786.288,89.666-794.388,89.666"/>
</g>
<polygon fill="#23A9E1" points="-1259.722,208.778 -1283.722,208.778 -1283.722,216.778 -1275.722,216.778 -1275.722,240.778 
	-1283.722,240.778 -1283.722,248.778 -1251.722,248.778 -1251.722,240.778 -1259.722,240.778 "/>
<g>
	<defs>
		<rect id="SVGID_7_" x="-1331.722" y="152.778" width="128" height="128"/>
	</defs>
	<clipPath id="SVGID_8_">
		<use xlink:href="#SVGID_7_"  overflow="visible"/>
	</clipPath>
	<path clip-path="url(#SVGID_8_)" fill="#23A9E1" d="M-1267.722,200.778c4.418,0,8-3.582,8-8s-3.582-8-8-8s-8,3.582-8,8
		S-1272.14,200.778-1267.722,200.778"/>
	<path clip-path="url(#SVGID_8_)" fill="#23A9E1" d="M-1267.722,160.778c-30.926,0-56,25.074-56,56s25.074,56,56,56s56-25.074,56-56
		S-1236.796,160.778-1267.722,160.778 M-1267.722,268.778c-28.673,0-52-23.327-52-52s23.327-52,52-52s52,23.327,52,52
		S-1239.049,268.778-1267.722,268.778"/>
</g>
<g>
	<g>
		<circle fill="#23A9E1" cx="-1153.194" cy="183.306" r="10"/>
		<circle fill="#23A9E1" cx="-1119.722" cy="183.306" r="10"/>
		<circle fill="#23A9E1" cx="-1086.249" cy="183.306" r="10"/>
	</g>
	<g>
		<circle fill="#23A9E1" cx="-1119.722" cy="250.251" r="10"/>
		<circle fill="#23A9E1" cx="-1119.722" cy="216.778" r="10"/>
		<circle fill="#23A9E1" cx="-1119.722" cy="183.306" r="10"/>
	</g>
	<g>
		<circle fill="#23A9E1" cx="-1153.194" cy="250.251" r="10"/>
		<circle fill="#23A9E1" cx="-1153.194" cy="216.778" r="10"/>
		<circle fill="#23A9E1" cx="-1153.194" cy="183.306" r="10"/>
	</g>
	<g>
		<circle fill="#23A9E1" cx="-1086.249" cy="250.251" r="10"/>
		<circle fill="#23A9E1" cx="-1086.249" cy="216.778" r="10"/>
		<circle fill="#23A9E1" cx="-1086.249" cy="183.306" r="10"/>
	</g>
</g>
<g>
	<defs>
		<rect id="SVGID_9_" x="-1031.722" y="156.778" width="120" height="120"/>
	</defs>
	<clipPath id="SVGID_10_">
		<use xlink:href="#SVGID_9_"  overflow="visible"/>
	</clipPath>
	<path clip-path="url(#SVGID_10_)" fill="#23A9E1" d="M-928.655,173.71c-8.141-8.145-19.391-13.182-31.816-13.182
		s-23.676,5.037-31.816,13.182c-8.145,8.143-13.184,19.393-13.184,31.818c0,3.902,0.498,7.688,1.434,11.301
		c-0.475-0.031-0.952-0.051-1.434-0.051c-6.211,0-11.836,2.52-15.908,6.592c-4.072,4.07-6.592,9.695-6.592,15.908
		c0,6.576,2.52,12.535,6.592,16.846l15.908,16.904v-11.25c6.211,0,11.836-2.52,15.908-6.592c2.969-2.967,5.107-6.762,6.051-11.006
		c6.739,4.027,14.617,6.348,23.041,6.348v22.5l31.816-33.811c8.145-8.621,13.184-20.533,13.184-33.689
		C-915.472,193.103-920.511,181.853-928.655,173.71 M-931.386,236.647l-25.336,26.924v-13.043v-3.75h-3.75
		c-8.122,0-15.881-2.339-22.52-6.686c0.009-0.271,0.02-0.541,0.02-0.814c0-6.213-2.52-11.838-6.592-15.908
		c-2.829-2.829-6.409-4.906-10.413-5.912c-1.148-3.82-1.745-7.828-1.745-11.93c0-11.018,4.291-21.375,12.086-29.167
		c7.788-7.792,18.146-12.083,29.164-12.083s21.376,4.291,29.166,12.083c7.793,7.792,12.084,18.149,12.084,29.167
		C-919.222,217.293-923.54,228.344-931.386,236.647"/>
	<path clip-path="url(#SVGID_10_)" fill="#23A9E1" d="M-960.472,199.903c-3.106,0-5.625,2.518-5.625,5.625s2.519,5.625,5.625,5.625
		s5.625-2.518,5.625-5.625S-957.365,199.903-960.472,199.903"/>
	<path clip-path="url(#SVGID_10_)" fill="#23A9E1" d="M-941.722,199.903c-3.106,0-5.625,2.518-5.625,5.625s2.519,5.625,5.625,5.625
		s5.625-2.518,5.625-5.625S-938.615,199.903-941.722,199.903"/>
	<path clip-path="url(#SVGID_10_)" fill="#23A9E1" d="M-979.222,199.903c-3.105,0-5.625,2.518-5.625,5.625s2.52,5.625,5.625,5.625
		s5.625-2.518,5.625-5.625S-976.116,199.903-979.222,199.903"/>
</g>
<g>
	<defs>
		<rect id="SVGID_11_" x="-887.722" y="152.778" width="128" height="128"/>
	</defs>
	<clipPath id="SVGID_12_">
		<use xlink:href="#SVGID_11_"  overflow="visible"/>
	</clipPath>
	<path clip-path="url(#SVGID_12_)" fill="#23A9E1" d="M-823.722,235.112c20.252,0,36.666-16.414,36.666-36.667
		s-16.414-36.667-36.666-36.667s-36.666,16.414-36.666,36.667S-843.974,235.112-823.722,235.112 M-823.722,165.445
		c18.196,0,33,14.804,33,33c0,18.197-14.804,32.999-33,32.999c-18.197,0-33-14.802-33-32.999
		C-856.722,180.249-841.919,165.445-823.722,165.445"/>
	<path clip-path="url(#SVGID_12_)" fill="#23A9E1" d="M-794.388,242.444h-58.668c-8.1,0-14.666,6.568-14.666,14.668v14.666h88
		v-14.666C-779.722,249.013-786.288,242.444-794.388,242.444"/>
</g>
<image overflow="visible" width="2166" height="1696" xlink:href="../../../health-blockchain/ui-react/public/images/qlue_fullpixel.png"  transform="matrix(0.3132 0 0 0.3271 -1389.8872 462.9844)">
</image>
<text transform="matrix(1 0 0 1 -376.6943 368.5547)" font-family="'MyriadPro-Regular'" font-size="12">f27577</text>
<circle fill="#F37738" cx="-675.722" cy="64" r="50"/>
<circle fill="#FBD703" cx="-527.722" cy="64" r="50"/>
<g>
	<path fill="#FFFFFF" d="M-700.741,56.375h-0.08l-4.959,2.359l-1-4.559l6.879-3.2h5.039v25.995h-5.879V56.375z"/>
	<path fill="#FFFFFF" d="M-668.942,55.976h-10.078l-0.561,3.999c0.561-0.08,1.041-0.08,1.68-0.08c2.48,0,5,0.56,6.84,1.88
		c1.959,1.319,3.158,3.479,3.158,6.519c0,4.838-4.158,9.117-11.156,9.117c-3.16,0-5.801-0.719-7.24-1.479l1.08-4.559
		c1.16,0.559,3.52,1.279,5.879,1.279c2.52,0,5.199-1.201,5.199-3.959c0-2.68-2.119-4.319-7.318-4.319
		c-1.439,0-2.439,0.08-3.52,0.239l1.719-13.638h14.318V55.976z"/>
	<path fill="#FFFFFF" d="M-647.503,55.295c-0.68-0.04-1.4,0-2.359,0.08c-5.398,0.44-7.799,3.2-8.479,6.239h0.119
		c1.281-1.319,3.08-2.08,5.52-2.08c4.359,0,8.039,3.08,8.039,8.478c0,5.16-3.959,9.398-9.6,9.398
		c-6.918,0-10.316-5.158-10.316-11.356c0-4.879,1.799-8.959,4.598-11.559c2.6-2.359,5.959-3.639,10.039-3.839
		c1.119-0.08,1.84-0.08,2.439-0.04V55.295z M-650.823,68.332c0-2.398-1.279-4.479-3.879-4.479c-1.639,0-2.998,1-3.6,2.32
		c-0.16,0.318-0.238,0.799-0.238,1.52c0.119,2.76,1.439,5.238,4.199,5.238C-652.183,72.932-650.823,70.973-650.823,68.332z"/>
</g>
<g>
	<path fill="#FFFFFF" d="M-562.651,88.424c0.621-0.875,1.576-2.021,3.055-3.5c1.496-1.495,2.848-2.274,4.135-2.418
		c1.225-0.144,2.576,0.287,3.627,1.338c1.049,1.048,1.59,2.29,1.559,3.529c-0.047,1.606-0.922,3.181-2.354,4.613
		c-0.318,0.317-0.621,0.588-0.875,0.778l3.834,3.834L-552.073,99L-562.651,88.424z M-555.382,90.888
		c0.254-0.158,0.523-0.397,0.875-0.747c1.287-1.287,1.432-2.735,0.334-3.834c-0.986-0.984-2.26-0.89-3.469,0.319
		c-0.492,0.493-0.779,0.875-0.904,1.097L-555.382,90.888z"/>
	<path fill="#FFFFFF" d="M-553.409,79.182c0.652-0.906,1.719-2.164,3.006-3.451c1.592-1.592,2.941-2.464,4.312-2.624
		c1.143-0.127,2.242,0.271,3.227,1.257c1.367,1.368,1.336,3.275,0.748,4.532l0.047,0.048c1.051-0.445,2.18-0.143,3.436,0.573
		c1.543,0.875,3.277,1.94,3.896,2.146l-2.48,2.481c-0.477-0.128-1.607-0.749-3.244-1.75c-1.623-1.051-2.449-0.954-3.453,0.016
		l-0.73,0.731l4.215,4.216l-2.4,2.401L-553.409,79.182z M-546.396,81.392l0.955-0.952c1.209-1.209,1.32-2.529,0.383-3.467
		c-0.988-0.988-2.148-0.812-3.279,0.284c-0.586,0.59-0.873,0.971-1.016,1.179L-546.396,81.392z"/>
	<path fill="#FFFFFF" d="M-529.122,65.106c3.514,3.515,3.514,7.777,0.383,10.91c-3.182,3.181-7.443,2.64-10.498-0.414
		c-3.211-3.213-3.562-7.666-0.398-10.831C-536.343,61.479-532.081,62.147-529.122,65.106z M-536.724,72.995
		c2.1,2.099,4.564,2.592,6.188,0.971c1.637-1.639,1.018-4.136-1.066-6.221c-1.924-1.924-4.502-2.654-6.172-0.984
		C-539.413,68.396-538.808,70.911-536.724,72.995z"/>
	<path fill="#FFFFFF" d="M-514.489,60.811c-0.223,0.669-0.984,1.909-2.289,3.213c-3.705,3.707-7.922,3.309-10.977,0.254
		c-3.656-3.659-3.084-8.302,0.162-11.547c1.254-1.257,2.463-1.956,3.117-2.163l1.43,2.417c-0.699,0.287-1.574,0.78-2.432,1.639
		c-1.926,1.925-2.26,4.58,0.127,6.966c2.146,2.147,4.771,2.226,6.934,0.063c0.73-0.732,1.385-1.701,1.67-2.369L-514.489,60.811z"/>
	<path fill="#FFFFFF" d="M-508.729,44.714c3.514,3.515,3.514,7.778,0.381,10.911c-3.182,3.181-7.443,2.64-10.498-0.414
		c-3.213-3.212-3.562-7.667-0.396-10.831C-515.952,41.088-511.688,41.755-508.729,44.714z M-516.333,52.604
		c2.1,2.1,4.564,2.592,6.188,0.971c1.639-1.639,1.018-4.136-1.066-6.22c-1.924-1.924-4.5-2.655-6.172-0.986
		C-519.021,48.006-518.417,50.52-516.333,52.604z"/>
	<path fill="#FFFFFF" d="M-501.669,48.595l-10.719-10.72l2.83-2.831l6.156,1.702c1.764,0.493,3.736,1.193,5.424,1.925l0.047-0.048
		c-1.574-1.256-3.07-2.656-4.676-4.263l-3.133-3.134l2.225-2.226l10.723,10.72l-2.547,2.545l-6.426-1.845
		c-1.781-0.508-3.863-1.193-5.646-1.923l-0.031,0.062c1.48,1.353,3.023,2.832,4.773,4.581l3.227,3.229L-501.669,48.595z"/>
</g>
<g>
	<path fill="#EC4697" d="M-647.722,202.971h-56v36.001h56V202.971z M-667.755,229.54v3.432h-15.967
		c0.02-1.949,0.488-3.654,1.402-5.109s2.16-2.721,3.74-3.799c0.76-0.561,1.549-1.102,2.373-1.631c0.824-0.523,1.58-1.09,2.27-1.695
		c0.693-0.607,1.26-1.264,1.703-1.969c0.449-0.703,0.682-1.521,0.703-2.438c0-0.422-0.051-0.877-0.148-1.357
		c-0.102-0.486-0.297-0.932-0.586-1.348c-0.289-0.412-0.691-0.762-1.203-1.043c-0.514-0.279-1.18-0.422-2.004-0.422
		c-0.76,0-1.387,0.158-1.887,0.457c-0.502,0.303-0.904,0.717-1.203,1.244c-0.301,0.525-0.521,1.148-0.67,1.863
		c-0.143,0.721-0.225,1.494-0.25,2.321h-3.807c0-1.298,0.174-2.505,0.52-3.612c0.344-1.111,0.861-2.068,1.551-2.877
		c0.693-0.805,1.531-1.438,2.523-1.896c0.988-0.459,2.145-0.689,3.457-0.689c1.424,0,2.619,0.236,3.574,0.705
		c0.957,0.469,1.732,1.066,2.32,1.781c0.59,0.721,1.01,1.498,1.256,2.338c0.242,0.84,0.365,1.643,0.365,2.402
		c0,0.941-0.145,1.796-0.434,2.556c-0.289,0.764-0.68,1.461-1.172,2.102c-0.488,0.635-1.047,1.223-1.666,1.762
		c-0.623,0.539-1.271,1.047-1.938,1.516c-0.67,0.471-1.338,0.918-2.008,1.344c-0.668,0.426-1.283,0.852-1.855,1.275
		c-0.564,0.428-1.062,0.869-1.48,1.33c-0.428,0.461-0.715,0.945-0.871,1.459H-667.755z"/>
	<path fill="#EC4697" d="M-675.722,166.971c-27.614,0-50,22.385-50,50c0,27.614,22.386,50.001,50,50.001
		c27.613,0,50-22.387,50-50.001C-625.722,189.355-648.108,166.971-675.722,166.971z M-645.722,200.971v40.001h-60v-40.001v-8h60
		V200.971z"/>
</g>
<path fill="#E72133" d="M-230.862,14c-27.614,0-50,22.386-50,50.001c0,27.613,22.386,50,50,50c27.613,0,50-22.387,50-50
	C-180.862,36.386-203.249,14-230.862,14z M-200.862,71.001h-23v23h-14v-23h-23V57h23V34.001h14V57h23V71.001z"/>
<path fill="#5F93CE" d="M-527.722,166.778c-27.614,0-50,22.387-50,50s22.386,50,50,50c27.613,0,50-22.387,50-50
	S-500.108,166.778-527.722,166.778z M-525.149,200.681c0.682-3.309,1.544-6.588,2.493-9.832c1.15-3.93,3.502-4.639,6.562-1.932
	c3.667,3.246,5.881,7.408,6.536,12.24c0.64,4.725-3.384,8.666-8.529,8.658C-523.496,209.804-526.3,206.269-525.149,200.681z
	 M-545.599,200.878c0.839-4.818,3.048-8.895,6.708-12.154c0.431-0.383,0.953-0.686,1.477-0.934c1.913-0.908,3.432-0.484,4.217,1.473
	c0.757,1.885,1.199,3.9,1.715,5.875c0.674,2.576,1.284,5.166,1.671,6.732c-0.002,5.82-3.573,8.609-8.708,7.883
	c-3.776-0.535-6.813-3.484-7.167-7.008C-545.748,202.132-545.704,201.487-545.599,200.878z M-554.916,224.019
	c-1.016-0.758-1.975-1.918-2.382-3.094c-0.712-2.059-0.979-4.273-1.442-6.467c0.455-2.021,0.705-4.025,1.375-5.877
	c0.826-2.285,2.687-2.984,4.875-1.926c3.324,1.609,6.096,4.01,8.263,6.955c2.175,2.955,1.586,7.043-1.038,9.621
	C-547.848,225.767-551.99,226.2-554.916,224.019z M-509.41,241.04c-2.102,3.516-5.282,5.225-10.031,5.203
	c-0.691-0.123-2.033-0.248-3.307-0.613c-3.898-1.115-7.711-0.857-11.597,0.199c-6.633,1.797-12.617-2.158-13.563-8.938
	c-0.182-1.301,0.045-2.791,0.527-4.02c0.631-1.607,1.537-3.178,2.62-4.525c3.216-4,6.976-7.406,11.525-9.889
	c3.1-1.689,6.239-1.775,9.384-0.285c5.913,2.801,10.704,6.934,14.249,12.445C-507.414,234.021-507.331,237.565-509.41,241.04z
	 M-497.993,220.64c-1.083,3.379-4.386,5.193-8.045,4.68c-3.337-0.469-6.15-3.453-6.403-6.771c-0.193-2.531,0.575-4.707,2.428-6.447
	c1.339-1.258,2.712-2.484,4.134-3.646c0.77-0.629,1.634-1.174,2.524-1.619c2.593-1.295,4.54-0.59,5.45,2.145
	c0.586,1.762,0.804,3.643,1.202,5.547C-497.123,216.585-497.362,218.675-497.993,220.64z"/>
<path fill="#00B49F" d="M-378.86,14c-27.614,0-50,22.386-50,50c0,27.613,22.386,50,50,50c27.613,0,50-22.387,50-50
	C-328.86,36.386-351.247,14-378.86,14z M-367.269,70.375c-2.432,0-4.738-0.498-6.855-1.369l-25.145,25.145
	c-0.281,0.285-0.82,0.205-1.201-0.172l-8.258-8.258c-0.381-0.381-0.458-0.916-0.176-1.201l25.071-25.073
	c-0.934-2.178-1.465-4.578-1.465-7.097c0-9.957,8.071-18.028,18.028-18.028c2.205,0,4.289,0.45,6.24,1.176l-7.771,7.771
	c-1.465,1.465-1.465,3.838,0,5.303l5.303,5.303c1.465,1.464,3.838,1.464,5.303,0l7.771-7.771c0.726,1.952,1.18,4.039,1.18,6.247
	C-349.243,62.305-357.314,70.375-367.269,70.375z"/>
<path fill="#23A9E1" d="M-218.652,224.722c-9.213,9.219-24.202,9.219-33.421,0c-9.213-9.213-9.213-24.205,0-33.422
	c9.219-9.215,24.208-9.215,33.421,0C-209.434,200.517-209.434,215.509-218.652,224.722z M-213.105,185.753
	c-12.26-12.334-32.249-12.334-44.505,0c-12.343,12.266-12.343,32.178,0,44.516c11.24,11.24,28.886,12.178,41.219,2.812l-1.089,1.09
	l22.255,22.332l7.418-7.494l-22.256-22.256l-0.229,0.234C-200.929,214.649-201.866,197.003-213.105,185.753z"/>
<g>
	<path fill="#8FC740" d="M-363.86,201.778h-30v-5h-5v45h40v-45h-5V201.778z M-363.86,236.778h-30v-5h30V236.778z M-363.86,226.778
		h-30v-5h30V226.778z M-363.86,216.778h-30v-5h30V216.778z"/>
	<path fill="#8FC740" d="M-378.86,166.778c-27.614,0-50,22.386-50,50c0,27.613,22.386,50,50,50c27.613,0,50-22.387,50-50
		C-328.86,189.164-351.247,166.778-378.86,166.778z M-353.86,246.778h-50v-55h10v-5h30v5h10V246.778z"/>
</g>
<path fill="#158ECE" d="M49.591,89.397c0.533-0.534,1.068-1.052,1.605-1.562c0.313-0.541,2.518-2.532,3.305-2.994
	c4.186-3.603,18.113-13.416,22.63-17.448c9.976,13.38,15.241,29.162,15.811,45.082c12.923-19.091,12.72-44.407-0.607-63.301
	c5.788-8.576,10.205-17.601,13.191-26.699c-9.099,2.986-18.124,7.403-26.7,13.19c-18.893-13.326-44.209-13.528-63.3-0.606
	c15.921,0.571,31.7,5.834,45.082,15.811C56.575,55.388,46.762,69.314,43.159,73.5c-0.462,0.787-2.453,2.991-2.994,3.305
	c-0.51,0.536-1.029,1.071-1.562,1.605c-6.887,6.887-21.546,15.962-22.545,16.962c-0.035,0.034-0.066,0.068-0.1,0.103
	c5.215-0.534,9.766,0.63,12.852,3.715v0.002l0,0c3.087,3.086,4.25,7.637,3.717,12.852c0.034-0.033,0.068-0.064,0.103-0.1
	C33.629,110.944,42.703,96.285,49.591,89.397z"/>
<path fill="#A7A9AC" d="M43.645,488.343c-3.951-20.507-21.985-36-43.645-36s-39.693,15.493-43.645,36
	c11.443-10.651,26.778-17.176,43.644-17.176C16.865,471.167,32.201,477.691,43.645,488.343"/>
<path fill="#A7A9AC" d="M9.284,518.683c-1.873-4.265-3.09-11.145-3.09-18.91c0-0.602,0.01-1.196,0.024-1.786
	c-0.129-0.481-0.008-2.847,0.175-3.551c0.35-4.667,2.949-19.498,2.949-23.401c0-14.945-3.44-28.853-9.343-40.525
	c-5.902,11.673-9.343,25.58-9.343,40.525c0,3.903,2.6,18.734,2.949,23.401c0.183,0.704,0.304,3.069,0.175,3.551
	c0.015,0.59,0.024,1.185,0.024,1.786c0,7.766-1.217,14.646-3.09,18.91"/>
<path fill="#1C75BC" d="M-148.777,0v128h128V0H-148.777z M-52.361,109c-0.569-15.92-5.835-31.702-15.811-45.082
	c-4.517,4.032-18.444,13.845-22.63,17.448c-0.787,0.462-2.991,2.453-3.305,2.994c-0.537,0.51-1.072,1.028-1.605,1.562
	c-6.888,6.888-15.962,21.547-16.962,22.547c-0.034,0.034-0.068,0.065-0.103,0.099c0.533-5.215-0.63-9.766-3.717-12.853v-0.001
	c-3.086-3.085-7.637-4.249-12.852-3.715c0.033-0.034,0.064-0.068,0.1-0.103c0.999-1,15.658-10.075,22.545-16.962
	c0.533-0.534,1.053-1.069,1.562-1.604c0.541-0.314,2.532-2.519,2.994-3.305c3.603-4.187,13.416-18.113,17.448-22.63
	c-13.382-9.977-29.161-15.24-45.082-15.811c19.091-12.922,44.407-12.72,63.3,0.606c8.576-5.788,17.602-10.205,26.7-13.19
	c-2.986,9.099-7.403,18.123-13.191,26.699C-39.642,64.593-39.438,89.909-52.361,109z"/>
<g>
	<polygon fill="#1C75BC" points="-123.144,465.95 -111.943,454.75 -123.144,443.55 	"/>
	<path fill="#1C75BC" d="M-135.144,431.551l-16.8-16.8l-40,39.999l40,40.001l16.8-16.8V431.551z M-151.943,434.751l12.393,12.393
		h-24.785L-151.943,434.751z M-151.943,474.751l-11.607-11.607h23.215L-151.943,474.751z"/>
</g>
<g>
	<polygon fill="#5F93CE" points="-84.777,234.278 -74.621,224.122 -94.934,224.122 	"/>
	<path fill="#5F93CE" d="M-84.777,166.778c-27.614,0-50,22.387-50,50s22.386,50,50,50c27.613,0,50-22.387,50-50
		S-57.164,166.778-84.777,166.778z M-70.077,237.078l-14.7,14.7l-35-35.001l35-34.999l14.7,14.7V237.078z M-59.577,226.578v-19.601
		l9.8,9.8L-59.577,226.578z"/>
	<polygon fill="#5F93CE" points="-95.621,210.122 -73.934,210.122 -84.777,199.278 	"/>
</g>
<g>
	<path fill="#010101" d="M562.232,238l-30.625,30.625l6.562,6.562v28.438h48.125v-28.438l6.562-6.562L562.232,238z M584.107,301.438
		h-43.75V273l21.875-21.875L584.107,273V301.438z"/>
	<g>
		<defs>
			<rect id="SVGID_13_" x="527.232" y="235.812" width="70" height="70"/>
		</defs>
		<clipPath id="SVGID_14_">
			<use xlink:href="#SVGID_13_"  overflow="visible"/>
		</clipPath>
	</g>
	<g>
		<path fill="#010101" d="M560.798,290.145v-2.598c-1.833-0.082-3.61-0.574-4.649-1.176l0.82-3.199
			c1.148,0.629,2.763,1.203,4.54,1.203c1.559,0,2.624-0.603,2.624-1.696c0-1.039-0.874-1.694-2.897-2.378
			c-2.927-0.985-4.923-2.353-4.923-5.005c0-2.406,1.695-4.294,4.622-4.868v-2.598h2.68v2.407c1.832,0.081,3.062,0.464,3.965,0.901
			l-0.793,3.091c-0.711-0.301-1.969-0.93-3.938-0.93c-1.777,0-2.353,0.766-2.353,1.531c0,0.902,0.958,1.477,3.282,2.352
			c3.254,1.148,4.566,2.652,4.566,5.114c0,2.433-1.723,4.512-4.867,5.059v2.789H560.798z"/>
	</g>
</g>
<g>
	<path fill="#00B49F" d="M194,62.8v23.4h36V62.8l-18-18L194,62.8z M216.399,61.269l-0.652,2.543c-0.585-0.248-1.62-0.765-3.24-0.765
		c-1.462,0-1.936,0.629-1.936,1.26c0,0.742,0.788,1.215,2.7,1.936c2.679,0.944,3.759,2.182,3.759,4.208
		c0,2.001-1.418,3.712-4.006,4.162v2.295h-2.205V74.77c-1.508-0.067-2.971-0.472-3.825-0.968l0.675-2.632
		c0.944,0.518,2.273,0.99,3.736,0.99c1.282,0,2.158-0.496,2.158-1.396c0-0.854-0.719-1.394-2.384-1.956
		c-2.409-0.811-4.051-1.936-4.051-4.119c0-1.979,1.396-3.532,3.804-4.005v-2.138h2.205v1.981
		C214.645,60.594,215.657,60.909,216.399,61.269z"/>
	<path fill="#00B49F" d="M212,14c-27.614,0-50,22.387-50,50s22.386,50,50,50c27.613,0,50-22.387,50-50S239.613,14,212,14z
		 M231.8,64.6V88h-39.6V64.6l-5.4-5.399L212,34l25.2,25.2L231.8,64.6z"/>
</g>
<g>
	<path fill="#00B49F" d="M79.718,189.959c-4.256,0.014-7.713,3.476-7.701,7.712c0.012,4.231,3.504,7.712,7.73,7.701
		c4.242-0.01,7.686-3.478,7.678-7.731C87.417,193.37,83.981,189.946,79.718,189.959z"/>
	<path fill="#00B49F" d="M45.999,194.369c-4.314-0.017-7.75,3.38-7.764,7.675c-0.014,4.236,3.416,7.715,7.621,7.73
		c4.283,0.016,7.771-3.43,7.789-7.69C53.663,197.871,50.208,194.386,45.999,194.369z"/>
	<path fill="#00B49F" d="M63.569,214.205c-4.131-0.059-7.693,3.48-7.701,7.593c-0.01,4.303,3.348,7.766,7.643,7.822
		c4.205,0.055,7.734-3.423,7.773-7.658C71.321,217.713,67.868,214.241,63.569,214.205z"/>
	<path fill="#00B49F" d="M62.832,166.778c-27.614,0-50,22.387-50,50s22.386,50,50,50c27.613,0,50-22.387,50-50
		S90.445,166.778,62.832,166.778z M91.028,236.959c-0.658,0.131-1.373-0.229-1.609-0.873c-0.113-0.309-0.145-0.662-0.145-0.995
		c-0.008-7.848-0.01-15.694,0-23.542c0.002-0.926-0.207-1.745-0.895-2.4c-0.551-0.525-1.201-0.816-1.969-0.816
		c-4.451-0.001-8.9-0.008-13.352,0.003c-1.568,0.004-2.799,1.239-2.881,2.849c-0.002,0.034,0.002,0.068-0.002,0.103
		c-0.148,1.376-0.061,2.664,1.291,3.483c3.732,4.119,3.684,10.272-0.111,14.392c-0.125,0.137-0.252,0.271-0.439,0.47
		c0.256,0.058,0.459,0.1,0.66,0.149c2.602,0.637,4.48,2.992,4.492,5.672c0.014,3.159,0.006,6.318,0.002,9.478
		c-0.002,0.931-0.633,1.61-1.479,1.614c-0.85,0.003-1.469-0.664-1.469-1.606c-0.004-3.04-0.037-6.081,0.01-9.121
		c0.031-1.984-1.443-3.281-3.23-3.254c-4.244,0.065-8.492,0.062-12.738,0.001c-1.662-0.024-3.189,1.255-3.15,3.163
		c0.064,3.021,0.014,6.046,0.02,9.069c0.002,0.698-0.203,1.275-0.871,1.594c-0.879,0.418-1.895-0.111-2.061-1.071
		c-0.037-0.216-0.043-0.439-0.043-0.659c-0.002-2.922-0.002-5.843,0-8.765c0.002-3.256,1.699-5.413,4.859-6.184
		c0.082-0.02,0.16-0.053,0.266-0.089c-0.324-0.371-0.65-0.715-0.945-1.083c-3.08-3.851-3.123-9.27-0.092-13.147
		c0.221-0.283,0.25-0.51,0.119-0.824c-0.449-1.086-1.512-1.838-2.701-1.84c-4.416-0.008-8.832-0.01-13.248,0
		c-1.596,0.004-2.836,1.214-2.918,2.806c-0.012,0.221-0.006,0.441-0.006,0.662c-0.002,7.746,0,15.491-0.004,23.236
		c0,0.271-0.006,0.547-0.059,0.81c-0.137,0.684-0.721,1.134-1.43,1.133c-0.711-0.002-1.281-0.45-1.424-1.139
		c-0.045-0.214-0.057-0.438-0.057-0.657c-0.004-7.864-0.006-15.729-0.002-23.593c0.002-3.041,1.732-5.335,4.537-6.043
		c0.178-0.045,0.357-0.077,0.617-0.134c-2.826-2.941-3.92-6.366-2.979-10.329c0.617-2.599,2.088-4.657,4.275-6.182
		c4.361-3.039,10.221-2.379,13.898,1.55c3.504,3.743,4.168,10.271-0.463,14.954c2,0.348,3.484,1.393,4.469,3.144
		c2.977-1.82,6.102-2.19,9.414-1.072c0.025-3.52,1.713-5.697,5.127-6.504c-5.055-5.037-3.672-12.346,0.545-15.88
		c4.164-3.489,10.396-3.278,14.332,0.549c3.955,3.849,4.58,10.702-0.088,15.341c0.379,0.097,0.711,0.164,1.031,0.267
		c2.471,0.79,4.094,3.006,4.1,5.711c0.02,7.983,0.01,15.967,0.006,23.95C92.241,236.202,91.778,236.811,91.028,236.959z"/>
</g>
<g>
	<polygon fill="#F37738" points="194,215.578 194,238.979 230,238.979 230,215.578 212,197.578 	"/>
	<path fill="#F37738" d="M212,166.778c-27.614,0-50,22.387-50,50s22.386,50,50,50c27.613,0,50-22.387,50-50
		S239.613,166.778,212,166.778z M231.8,217.378v23.4h-39.6v-23.4l-5.4-5.399l25.2-25.2l25.2,25.2L231.8,217.378z"/>
</g>
<image overflow="visible" width="420" height="336" xlink:href="../../../../Screen Shot 2017-08-18 at 3.03.35 PM.png"  transform="matrix(0.5 0 0 0.5 134.2969 320.334)">
</image>
<path fill="#5B93B9" d="M656.377,18.608c-24,0-43.456,19.457-43.456,43.457v9.664h86.913v-9.664
	C699.834,38.065,680.377,18.608,656.377,18.608z"/>
<g>
	<ellipse fill="#243A49" cx="636.394" cy="64.498" rx="4.14" ry="5.637"/>
	<ellipse fill="#243A49" cx="676.863" cy="63.692" rx="4.14" ry="5.638"/>
</g>
<path fill="#37637F" d="M596,100.417v-1.45c0-8.896,7.211-16.106,16.107-16.106h87.785c8.896,0,16.107,7.211,16.107,16.106v1.45"/>
<path fill="#FFFFFF" stroke="#6387A0" stroke-width="0.6676" stroke-miterlimit="10" d="M699.489,81.764
	c0,4.822-19.303,8.732-43.116,8.732c-23.812,0-43.116-3.91-43.116-8.732"/>
<polygon fill="#243A49" points="656.529,72.871 653.331,73.827 650.134,75.588 646.936,76.543 643.738,76.693 646.936,80.064 
	650.134,82.631 653.331,84.392 656.529,85.348 659.651,84.392 662.772,82.631 665.895,80.064 669.016,76.693 665.895,76.543 
	662.772,75.588 659.651,73.827 "/>
<path fill="none" stroke="#158ECE" stroke-width="5" stroke-miterlimit="10" d="M412.689,88.532v-7.823v1.436V70.357
	c0-29.271-23.729-53.001-53.002-53.001c-29.271,0-53.001,23.73-53.001,53.001v11.787v-1.436v7.823"/>
<line fill="none" stroke="#158ECE" stroke-width="5" stroke-miterlimit="10" x1="413.31" y1="65" x2="413.31" y2="27"/>
<path fill="none" stroke="#158ECE" stroke-width="5" stroke-miterlimit="10" d="M306.687,88.532
	c0,9.958,20.296,18.016,45.376,18.016"/>
<g>
	<polygon fill="#158ECE" points="360.206,75.072 355.863,76.369 351.521,78.762 347.178,80.059 342.837,80.262 347.178,84.842 
		351.521,88.325 355.863,90.716 360.206,92.015 364.446,90.716 368.685,88.325 372.925,84.842 377.163,80.262 372.925,80.059 
		368.685,78.762 364.446,76.369 	"/>
	<g>
		<path fill="#004769" d="M341.86,60.457c-0.155-0.499-0.344-0.972-0.564-1.415c-0.219-0.443-0.47-0.856-0.746-1.232
			s-0.58-0.718-0.906-1.017c-0.324-0.299-0.673-0.557-1.039-0.769c-0.365-0.21-0.749-0.374-1.147-0.485
			c-0.399-0.111-0.811-0.169-1.233-0.169c-0.422,0-0.834,0.058-1.231,0.169c-0.397,0.111-0.782,0.275-1.148,0.485
			c-0.366,0.211-0.713,0.469-1.039,0.769c-0.324,0.299-0.627,0.641-0.904,1.017s-0.527,0.789-0.747,1.232s-0.409,0.917-0.563,1.415
			c-0.122,0.392-0.204,0.81-0.281,1.229c-2.232-1.761-5.309-4.342-5.309-3.973c0,0.575,4.209,7.54,4.365,8.038
			c0.154,0.499,0.344,0.972,0.563,1.415c0.22,0.442,0.47,0.854,0.746,1.232c0.277,0.379,1.77,1.908,2.096,2.207
			c0.325,0.3,0.672,0.558,1.038,0.768l-0.003-0.024c0.013,0.009,0.025,0.019,0.038,0.026c0.366,0.21,0.751,0.374,1.148,0.484
			c0.397,0.112,0.81,0.17,1.231,0.17c0.423,0,0.834-0.058,1.233-0.17c0.398-0.11,0.782-0.274,1.147-0.484
			c0.366-0.212,0.715-0.47,1.039-0.769c0.326-0.3,0.63-0.64,0.906-1.017c0.276-0.376,0.527-0.789,0.746-1.232
			c0.221-0.443,0.409-0.918,0.564-1.414c0.156-0.499,0.275-1.022,0.356-1.565c0.081-0.542,0.124-1.103,0.124-1.679
			c0-0.575-0.043-1.137-0.124-1.679C342.136,61.478,342.017,60.955,341.86,60.457z"/>
		<path fill="#004769" d="M389.691,61.687c-0.077-0.42-0.159-0.838-0.281-1.229c-0.154-0.499-0.344-0.972-0.563-1.415
			s-0.47-0.856-0.747-1.232s-0.58-0.718-0.904-1.017c-0.326-0.299-0.673-0.557-1.039-0.769c-0.366-0.21-0.751-0.374-1.148-0.485
			c-0.397-0.111-0.81-0.169-1.231-0.169c-0.423,0-0.834,0.058-1.233,0.169c-0.398,0.111-0.782,0.275-1.147,0.485
			c-0.366,0.211-0.715,0.469-1.039,0.769c-0.326,0.299-0.63,0.641-0.906,1.017s-0.527,0.789-0.746,1.232
			c-0.221,0.443-0.409,0.917-0.564,1.415c-0.156,0.498-0.275,1.021-0.356,1.563c-0.081,0.542-0.124,1.104-0.124,1.679
			c0,0.576,0.043,1.136,0.124,1.679c0.081,0.543,0.2,1.066,0.356,1.565c0.155,0.496,0.344,0.971,0.564,1.414
			c0.219,0.443,0.47,0.856,0.746,1.232c0.276,0.377,0.58,0.717,0.906,1.017c0.324,0.299,0.673,0.557,1.039,0.769
			c0.365,0.21,0.749,0.374,1.147,0.484c0.399,0.112,0.811,0.17,1.233,0.17c0.422,0,0.834-0.058,1.231-0.17
			c0.397-0.11,0.782-0.274,1.148-0.484c0.013-0.008,0.025-0.018,0.038-0.026l-0.003,0.024c0.366-0.21,0.713-0.468,1.038-0.768
			c0.326-0.299,1.818-1.828,2.096-2.207c0.276-0.378,0.526-0.79,0.746-1.232c0.22-0.443,0.409-0.916,0.563-1.415
			c0.156-0.498,4.365-7.462,4.365-8.038C395,57.344,391.924,59.925,389.691,61.687z"/>
	</g>
</g>
<path fill="#004769" d="M358.264,105.566c0,0.34-0.034,0.67-0.1,0.99c-0.065,0.319-0.162,0.627-0.286,0.922
	c-0.123,0.294-0.275,0.572-0.452,0.834s-0.377,0.504-0.6,0.727s-0.466,0.424-0.728,0.601c-0.261,0.177-0.54,0.328-0.833,0.453
	c-0.295,0.124-0.603,0.22-0.922,0.285c-0.32,0.065-0.65,0.1-0.99,0.1h-1.182h-1.183h-1.183h-1.182h-1.183h-1.183h-1.183h-1.182
	c-0.34,0-0.67-0.034-0.99-0.1c-0.319-0.065-0.627-0.161-0.922-0.285c-0.293-0.125-0.572-0.276-0.833-0.453s-0.505-0.378-0.728-0.601
	s-0.423-0.465-0.6-0.727c-0.176-0.262-0.329-0.54-0.452-0.834c-0.124-0.295-0.221-0.603-0.286-0.922c-0.065-0.32-0.1-0.65-0.1-0.99
	l0,0l0,0l0,0l0,0l0,0l0,0l0,0l0,0c0-0.339,0.034-0.669,0.1-0.989s0.162-0.628,0.286-0.922c0.123-0.295,0.276-0.573,0.452-0.835
	c0.177-0.261,0.377-0.504,0.6-0.727c0.223-0.222,0.467-0.424,0.728-0.6c0.261-0.177,0.54-0.328,0.833-0.453
	c0.295-0.125,0.603-0.221,0.922-0.286c0.32-0.065,0.65-0.1,0.99-0.1h1.182h1.183h1.183h1.183h1.182h1.183h1.183h1.182
	c0.34,0,0.67,0.034,0.99,0.1c0.319,0.065,0.627,0.161,0.922,0.286c0.293,0.125,0.572,0.276,0.833,0.453
	c0.262,0.176,0.505,0.378,0.728,0.6c0.223,0.223,0.423,0.466,0.6,0.727c0.177,0.262,0.329,0.54,0.452,0.835
	c0.124,0.294,0.221,0.602,0.286,0.922S358.264,105.228,358.264,105.566L358.264,105.566L358.264,105.566L358.264,105.566
	L358.264,105.566L358.264,105.566L358.264,105.566L358.264,105.566L358.264,105.566z"/>
<path fill="#004769" d="M411.83,57.402L411.83,57.402L411.83,57.402L411.83,57.402L411.83,57.402L411.83,57.402L411.83,57.402
	L411.83,57.402L411.83,57.402c0.543,0,1.071,0.055,1.583,0.16s1.005,0.259,1.476,0.458c0.471,0.199,0.916,0.442,1.334,0.725
	c0.419,0.283,0.81,0.604,1.164,0.96s0.677,0.745,0.959,1.163s0.526,0.865,0.726,1.335c0.197,0.471,0.353,0.964,0.456,1.476
	c0.106,0.511,0.161,1.041,0.161,1.583v1.156v1.157v1.155v1.157v1.157v1.155v1.157v1.156c0,0.543-0.055,1.073-0.161,1.583
	c-0.104,0.513-0.259,1.006-0.456,1.476c-0.199,0.47-0.443,0.917-0.726,1.334c-0.282,0.42-0.604,0.809-0.959,1.164
	c-0.354,0.354-0.745,0.677-1.164,0.96c-0.418,0.283-0.863,0.526-1.334,0.725s-0.964,0.353-1.476,0.458
	c-0.512,0.104-1.04,0.159-1.583,0.159"/>
<path fill="#004769" d="M307.546,82.371L307.546,82.371L307.546,82.371L307.546,82.371L307.546,82.371L307.546,82.371
	L307.546,82.371L307.546,82.371L307.546,82.371c-0.543,0-1.072-0.055-1.584-0.159c-0.512-0.105-1.005-0.26-1.476-0.458
	s-0.916-0.441-1.335-0.725c-0.417-0.283-0.807-0.605-1.162-0.96c-0.356-0.355-0.678-0.744-0.959-1.164
	c-0.283-0.417-0.527-0.864-0.726-1.334c-0.197-0.47-0.353-0.963-0.457-1.476c-0.105-0.51-0.16-1.04-0.16-1.583v-1.156v-1.157v-1.155
	v-1.157v-1.157v-1.155v-1.157v-1.156c0-0.543,0.055-1.072,0.16-1.583c0.104-0.512,0.26-1.005,0.457-1.476
	c0.198-0.47,0.442-0.917,0.726-1.335c0.281-0.418,0.603-0.807,0.959-1.163c0.355-0.356,0.745-0.677,1.162-0.96
	c0.419-0.282,0.864-0.525,1.335-0.725c0.471-0.199,0.964-0.353,1.476-0.458s1.041-0.16,1.584-0.16"/>
<path fill="#004769" d="M419.306,22.647c0,0.407-0.042,0.804-0.119,1.188c-0.078,0.384-0.193,0.754-0.343,1.107
	c-0.15,0.352-0.332,0.687-0.543,1.001c-0.213,0.313-0.455,0.606-0.722,0.872s-0.56,0.508-0.872,0.719
	c-0.313,0.212-0.647,0.395-1.001,0.543c-0.353,0.149-0.722,0.266-1.106,0.344c-0.384,0.079-0.78,0.12-1.188,0.12
	c-0.406,0-0.804-0.041-1.188-0.12c-0.385-0.078-0.754-0.195-1.106-0.344c-0.354-0.148-0.688-0.331-1.001-0.543
	c-0.314-0.211-0.605-0.453-0.872-0.719s-0.508-0.559-0.722-0.872c-0.211-0.314-0.393-0.649-0.543-1.001
	c-0.149-0.353-0.265-0.723-0.343-1.107c-0.077-0.383-0.119-0.78-0.119-1.188s0.042-0.804,0.119-1.188
	c0.078-0.384,0.193-0.754,0.343-1.107c0.15-0.352,0.332-0.687,0.543-1.001c0.214-0.313,0.455-0.606,0.722-0.872
	s0.558-0.508,0.872-0.719c0.313-0.212,0.647-0.395,1.001-0.543c0.353-0.149,0.722-0.266,1.106-0.344
	c0.384-0.079,0.781-0.12,1.188-0.12c0.407,0,0.804,0.042,1.188,0.12c0.385,0.078,0.754,0.194,1.106,0.344
	c0.354,0.148,0.688,0.331,1.001,0.543c0.312,0.211,0.605,0.453,0.872,0.719s0.509,0.559,0.722,0.872
	c0.211,0.314,0.393,0.649,0.543,1.001c0.149,0.353,0.265,0.723,0.343,1.107C419.264,21.843,419.306,22.24,419.306,22.647z"/>
<g>
	<ellipse fill="#243A49" cx="335.187" cy="217.968" rx="5.14" ry="7"/>
	<ellipse fill="#243A49" cx="385.437" cy="216.968" rx="5.14" ry="7"/>
</g>
<polygon fill="#243A49" points="360.5,228.366 356.529,229.552 352.559,231.739 348.588,232.925 344.619,233.11 348.588,237.298 
	352.559,240.483 356.529,242.669 360.5,243.856 364.377,242.669 368.252,240.483 372.129,237.298 376.004,233.11 372.129,232.925 
	368.252,231.739 364.377,229.552 "/>
<path fill="#243A49" d="M415.621,217.806v-36.394h-4v20.89c-8.466-20.168-28.415-34.369-51.622-34.369
	c-30.855,0-55.958,25.104-55.958,55.959v18.503c0,11.406,21.17,20.341,48.195,20.341v-4c-26.437,0-44.195-8.449-44.195-16.341
	v-18.503c0-28.65,23.309-51.959,51.958-51.959c26.676,0,48.709,20.209,51.622,46.119v1.36h0.131c0.127,1.478,0.206,2.97,0.206,4.479
	v18.503h4v-18.503C415.958,221.835,415.839,219.806,415.621,217.806z"/>
<path fill="#243A49" d="M358.55,259.736c0,2.761-2.238,5-4.999,5h-9.629c-2.761,0-4.999-2.239-4.999-5l0,0c0-2.761,2.238-5,4.999-5
	h9.629C356.312,254.736,358.55,256.976,358.55,259.736L358.55,259.736z"/>
<path fill="#243A49" d="M413.583,212.291L413.583,212.291c3.866,0,7,3.134,7,7v8.242c0,3.865-3.134,7-7,7"/>
<path fill="#243A49" d="M306.416,234.533L306.416,234.533c-3.866,0-7-3.135-7-7v-8.242c0-3.866,3.134-7,7-7"/>
<circle fill="#243A49" cx="413.676" cy="180.319" r="5"/>
<g>
	<path fill="none" stroke="#158ECE" stroke-miterlimit="10" d="M408.364-82.276c3.344-4.467,9.665-5.376,14.133-2.033"/>
	<line fill="none" stroke="#158ECE" stroke-miterlimit="10" x1="408.364" y1="-91.206" x2="411.291" y2="-84.908"/>
	<line fill="none" stroke="#158ECE" stroke-miterlimit="10" x1="412.22" y1="-93.107" x2="413.715" y2="-86.325"/>
	<line fill="none" stroke="#158ECE" stroke-miterlimit="10" x1="422.397" y1="-91.911" x2="420.744" y2="-85.165"/>
	<line fill="none" stroke="#158ECE" stroke-miterlimit="10" x1="417.354" y1="-93.187" x2="417.16" y2="-86.245"/>
	<path fill="none" stroke="#158ECE" stroke-miterlimit="10" d="M472.747-81.951c-3.344-4.467-9.665-5.376-14.133-2.033"/>
	<line fill="none" stroke="#158ECE" stroke-miterlimit="10" x1="472.747" y1="-90.88" x2="469.82" y2="-84.583"/>
	<line fill="none" stroke="#158ECE" stroke-miterlimit="10" x1="468.892" y1="-92.782" x2="467.396" y2="-86"/>
	<line fill="none" stroke="#158ECE" stroke-miterlimit="10" x1="458.714" y1="-91.585" x2="460.367" y2="-84.839"/>
	<line fill="none" stroke="#158ECE" stroke-miterlimit="10" x1="463.757" y1="-92.862" x2="463.951" y2="-85.919"/>
</g>
<polygon fill="#158ECE" points="508.5,75.588 504.529,76.773 500.559,78.961 496.588,80.146 492.619,80.332 496.588,84.52 
	500.559,87.705 504.529,89.891 508.5,91.078 512.377,89.891 516.252,87.705 520.129,84.52 524.004,80.332 520.129,80.146 
	516.252,78.961 512.377,76.773 "/>
<path fill="none" stroke="#158ECE" stroke-width="4" stroke-miterlimit="10" d="M561.958,89.616v-7.965v1.462v-12
	c0-29.8-24.158-53.959-53.959-53.959c-29.8,0-53.958,24.159-53.958,53.959v12v-1.462v7.965"/>
<line fill="none" stroke="#158ECE" stroke-width="4" stroke-miterlimit="10" x1="561.621" y1="66.634" x2="561.621" y2="28.634"/>
<path fill="none" stroke="#158ECE" stroke-width="4" stroke-miterlimit="10" d="M454.041,89.616
	c0,10.138,20.662,18.341,46.195,18.341"/>
<g>
	<g>
		<ellipse fill="#004769" cx="483.187" cy="65.189" rx="5.14" ry="7"/>
		<ellipse fill="#004769" cx="533.437" cy="64.189" rx="5.14" ry="7"/>
	</g>
	<path fill="#004769" d="M506.55,106.958c0,2.761-2.238,5-4.999,5h-9.629c-2.761,0-4.999-2.239-4.999-5l0,0c0-2.761,2.238-5,4.999-5
		h9.629C504.312,101.958,506.55,104.197,506.55,106.958L506.55,106.958z"/>
	<path fill="#004769" d="M561.583,59.513L561.583,59.513c3.866,0,7,3.134,7,7v8.242c0,3.865-3.134,7-7,7"/>
	<path fill="#004769" d="M454.416,81.755L454.416,81.755c-3.866,0-7-3.135-7-7v-8.242c0-3.866,3.134-7,7-7"/>
	<circle fill="#004769" cx="561.676" cy="27.541" r="5"/>
</g>
<rect x="578.188" y="382.688" fill="#FFDD00" width="60.862" height="60.862"/>
<rect x="493.572" y="382.688" fill="#A6CE39" width="60.862" height="60.862"/>
<rect x="662.798" y="382.688" fill="#F15A22" width="60.862" height="60.862"/>
<rect x="413.569" y="382.688" fill="#158ECE" width="60.862" height="60.862"/>
<path fill="none" stroke="#158ECE" stroke-width="3.6016" stroke-miterlimit="10" d="M852.585,86.533V79.36v1.316V69.872
	c0-26.832-21.752-48.584-48.585-48.584c-26.832,0-48.584,21.752-48.584,48.584v10.805V79.36v7.173"/>
<line fill="none" stroke="#158ECE" stroke-width="3.6666" stroke-miterlimit="10" x1="853.153" y1="64.961" x2="853.153" y2="30.128"/>
<path fill="none" stroke="#158ECE" stroke-width="3.6016" stroke-miterlimit="10" d="M755.416,86.533
	c0,9.127,18.604,16.514,41.595,16.514"/>
<g>
	<polygon fill="#158ECE" points="804.476,74.193 800.494,75.383 796.514,77.575 792.533,78.765 788.554,78.95 792.533,83.149 
		796.514,86.343 800.494,88.534 804.476,89.725 808.362,88.534 812.247,86.343 816.134,83.149 820.02,78.95 816.134,78.765 
		812.247,77.575 808.362,75.383 	"/>
	<g>
		<path fill="#004769" d="M787.658,60.797c-0.142-0.457-0.314-0.891-0.517-1.297c-0.201-0.407-0.431-0.785-0.685-1.13
			c-0.253-0.345-0.531-0.658-0.83-0.932c-0.298-0.274-0.617-0.511-0.953-0.705c-0.335-0.192-0.687-0.342-1.052-0.444
			c-0.366-0.103-0.743-0.155-1.131-0.155c-0.387,0-0.764,0.053-1.128,0.155c-0.365,0.102-0.718,0.252-1.053,0.444
			c-0.336,0.194-0.654,0.431-0.953,0.705c-0.297,0.274-0.574,0.587-0.829,0.932c-0.254,0.345-0.483,0.723-0.685,1.13
			c-0.201,0.406-0.375,0.84-0.517,1.297c-0.111,0.359-0.187,0.742-0.258,1.127c-2.046-1.614-4.866-3.981-4.866-3.643
			c0,0.528,3.858,6.912,4.002,7.369c0.142,0.456,0.314,0.89,0.517,1.296c0.201,0.406,0.431,0.784,0.684,1.13
			c0.254,0.348,1.622,1.749,1.921,2.023c0.298,0.275,0.616,0.512,0.952,0.703l-0.003-0.021c0.012,0.007,0.023,0.016,0.035,0.023
			c0.335,0.193,0.688,0.344,1.053,0.443c0.364,0.104,0.741,0.156,1.128,0.156c0.388,0,0.765-0.052,1.131-0.156
			c0.365-0.1,0.717-0.25,1.052-0.443c0.336-0.193,0.655-0.43,0.953-0.704c0.299-0.275,0.577-0.587,0.83-0.933
			c0.254-0.344,0.483-0.723,0.685-1.13c0.202-0.406,0.375-0.841,0.517-1.296c0.144-0.456,0.253-0.937,0.327-1.434
			c0.074-0.498,0.113-1.012,0.113-1.54c0-0.527-0.039-1.042-0.113-1.539C787.911,61.733,787.802,61.253,787.658,60.797z"/>
		<path fill="#004769" d="M831.503,61.924c-0.07-0.385-0.146-0.768-0.258-1.127c-0.141-0.457-0.314-0.891-0.516-1.297
			c-0.202-0.407-0.431-0.785-0.686-1.13c-0.254-0.345-0.531-0.658-0.828-0.932c-0.3-0.274-0.617-0.511-0.953-0.705
			c-0.336-0.192-0.688-0.342-1.053-0.444c-0.364-0.103-0.742-0.155-1.129-0.155c-0.388,0-0.765,0.053-1.13,0.155
			c-0.365,0.102-0.718,0.252-1.053,0.444c-0.335,0.194-0.655,0.431-0.952,0.705c-0.299,0.274-0.577,0.587-0.831,0.932
			c-0.253,0.345-0.483,0.723-0.684,1.13c-0.202,0.406-0.375,0.84-0.518,1.297s-0.252,0.937-0.326,1.433
			c-0.074,0.497-0.114,1.012-0.114,1.539c0,0.528,0.04,1.042,0.114,1.54c0.074,0.497,0.184,0.978,0.326,1.434
			c0.143,0.455,0.315,0.89,0.518,1.296c0.2,0.407,0.431,0.786,0.684,1.13c0.254,0.346,0.532,0.657,0.831,0.933
			c0.297,0.274,0.617,0.511,0.952,0.704s0.688,0.344,1.053,0.443c0.365,0.104,0.742,0.156,1.13,0.156
			c0.387,0,0.765-0.052,1.129-0.156c0.364-0.1,0.717-0.25,1.053-0.443c0.012-0.008,0.023-0.017,0.035-0.023l-0.003,0.021
			c0.336-0.191,0.653-0.428,0.952-0.703c0.299-0.274,1.666-1.676,1.921-2.023c0.253-0.346,0.482-0.724,0.684-1.13
			s0.375-0.84,0.517-1.296c0.144-0.457,4.001-6.841,4.001-7.369C836.369,57.943,833.55,60.31,831.503,61.924z"/>
	</g>
</g>
<path fill="#004769" d="M802.695,102.146c0,0.312-0.032,0.614-0.092,0.907c-0.06,0.294-0.148,0.575-0.263,0.846
	c-0.112,0.271-0.252,0.524-0.414,0.765c-0.162,0.239-0.346,0.462-0.55,0.666s-0.427,0.388-0.667,0.551
	c-0.238,0.161-0.495,0.301-0.764,0.416c-0.27,0.112-0.552,0.2-0.845,0.261c-0.294,0.06-0.596,0.092-0.907,0.092h-1.084h-1.084
	h-1.084h-1.083h-1.084h-1.084h-1.084h-1.083c-0.312,0-0.614-0.032-0.908-0.092c-0.292-0.061-0.574-0.148-0.845-0.261
	c-0.269-0.115-0.524-0.255-0.764-0.416c-0.239-0.163-0.463-0.347-0.667-0.551s-0.388-0.427-0.55-0.666
	c-0.161-0.24-0.302-0.494-0.414-0.765c-0.114-0.271-0.202-0.552-0.263-0.846c-0.06-0.293-0.091-0.596-0.091-0.907l0,0l0,0l0,0l0,0
	l0,0l0,0l0,0l0,0c0-0.31,0.031-0.612,0.091-0.906c0.061-0.293,0.148-0.576,0.263-0.845c0.112-0.271,0.253-0.526,0.414-0.767
	c0.162-0.238,0.346-0.462,0.55-0.666c0.204-0.202,0.428-0.389,0.667-0.55s0.495-0.301,0.764-0.415
	c0.271-0.114,0.553-0.202,0.845-0.262c0.294-0.061,0.597-0.091,0.908-0.091h1.083h1.084h1.084h1.084h1.083h1.084h1.084h1.084
	c0.312,0,0.613,0.03,0.907,0.091c0.293,0.06,0.575,0.147,0.845,0.262c0.269,0.114,0.525,0.254,0.764,0.415
	c0.24,0.161,0.463,0.348,0.667,0.55c0.204,0.204,0.388,0.428,0.55,0.666c0.162,0.24,0.302,0.496,0.414,0.767
	c0.114,0.269,0.203,0.552,0.263,0.845C802.663,101.534,802.695,101.837,802.695,102.146L802.695,102.146L802.695,102.146
	L802.695,102.146L802.695,102.146L802.695,102.146L802.695,102.146L802.695,102.146L802.695,102.146z"/>
<path fill="#004769" d="M851.797,57.997L851.797,57.997L851.797,57.997L851.797,57.997L851.797,57.997L851.797,57.997
	L851.797,57.997L851.797,57.997L851.797,57.997c0.498,0,0.982,0.05,1.451,0.147c0.469,0.095,0.921,0.236,1.353,0.419
	s0.84,0.406,1.223,0.664c0.385,0.26,0.742,0.553,1.067,0.88c0.325,0.327,0.62,0.683,0.879,1.066s0.482,0.793,0.665,1.223
	c0.181,0.432,0.323,0.885,0.418,1.354c0.098,0.468,0.148,0.954,0.148,1.452v1.06v1.06v1.061v1.06v1.062v1.059v1.062v1.06
	c0,0.498-0.051,0.982-0.148,1.45c-0.095,0.471-0.237,0.922-0.418,1.354c-0.183,0.43-0.406,0.84-0.665,1.223
	c-0.259,0.385-0.554,0.741-0.879,1.067c-0.325,0.324-0.683,0.619-1.067,0.879c-0.383,0.26-0.791,0.483-1.223,0.664
	c-0.432,0.183-0.884,0.324-1.353,0.421c-0.469,0.095-0.953,0.145-1.451,0.145"/>
<path fill="#004769" d="M756.204,80.884L756.204,80.884L756.204,80.884L756.204,80.884L756.204,80.884L756.204,80.884
	L756.204,80.884L756.204,80.884L756.204,80.884c-0.498,0-0.983-0.05-1.452-0.145c-0.469-0.097-0.921-0.238-1.353-0.421
	c-0.432-0.181-0.84-0.404-1.224-0.664c-0.383-0.26-0.739-0.555-1.065-0.879c-0.327-0.326-0.621-0.683-0.879-1.067
	c-0.26-0.383-0.483-0.793-0.665-1.223c-0.181-0.432-0.323-0.883-0.419-1.354c-0.097-0.468-0.146-0.952-0.146-1.45v-1.06v-1.062
	v-1.059V69.44v-1.06V67.32v-1.06v-1.06c0-0.499,0.05-0.984,0.146-1.452c0.096-0.469,0.238-0.922,0.419-1.354
	c0.182-0.43,0.405-0.839,0.665-1.223c0.258-0.383,0.552-0.739,0.879-1.066c0.326-0.327,0.683-0.621,1.065-0.88
	c0.384-0.258,0.792-0.481,1.224-0.664s0.884-0.324,1.353-0.419c0.469-0.097,0.954-0.147,1.452-0.147"/>
<path fill="#004769" d="M858.649,26.138c0,0.374-0.038,0.737-0.109,1.088c-0.071,0.353-0.177,0.691-0.313,1.015
	c-0.139,0.322-0.305,0.63-0.498,0.917c-0.195,0.288-0.417,0.556-0.661,0.799c-0.245,0.244-0.514,0.466-0.8,0.659
	c-0.287,0.195-0.594,0.362-0.918,0.498c-0.323,0.138-0.661,0.244-1.014,0.316c-0.352,0.073-0.716,0.11-1.089,0.11
	c-0.372,0-0.736-0.038-1.089-0.11c-0.353-0.072-0.69-0.178-1.014-0.316c-0.324-0.135-0.63-0.303-0.918-0.498
	c-0.288-0.193-0.555-0.416-0.799-0.659c-0.245-0.243-0.466-0.512-0.662-0.799c-0.193-0.287-0.359-0.595-0.497-0.917
	c-0.138-0.324-0.243-0.663-0.314-1.015c-0.07-0.351-0.109-0.714-0.109-1.088c0-0.373,0.039-0.737,0.109-1.089
	c0.071-0.351,0.177-0.691,0.314-1.014s0.304-0.629,0.497-0.917c0.196-0.287,0.417-0.555,0.662-0.799
	c0.244-0.245,0.511-0.465,0.799-0.66c0.288-0.193,0.594-0.362,0.918-0.498c0.323-0.136,0.661-0.243,1.014-0.315
	s0.717-0.109,1.089-0.109c0.373,0,0.737,0.038,1.089,0.109c0.353,0.072,0.69,0.179,1.014,0.315c0.324,0.136,0.631,0.305,0.918,0.498
	c0.286,0.194,0.555,0.415,0.8,0.66c0.244,0.244,0.466,0.513,0.661,0.799c0.193,0.288,0.359,0.594,0.498,0.917
	c0.137,0.323,0.242,0.664,0.313,1.014C858.611,25.401,858.649,25.765,858.649,26.138z"/>
</svg>
