<?xml version="1.0" encoding="utf-8"?>
<!-- Generator: Adobe Illustrator 16.0.0, SVG Export Plug-In . SVG Version: 6.00 Build 0)  -->
<!DOCTYPE svg PUBLIC "-//W3C//DTD SVG 1.1//EN" "http://www.w3.org/Graphics/SVG/1.1/DTD/svg11.dtd">
<svg version="1.1" id="Layer_1" xmlns="http://www.w3.org/2000/svg" xmlns:xlink="http://www.w3.org/1999/xlink" x="0px" y="0px"
	 width="128px" height="128px" viewBox="0 0 128 128" enable-background="new 0 0 128 128" xml:space="preserve">
<path fill="#CCE7F5" d="M981.76-98.223c0-29.801,24.158-53.958,53.958-53.958c29.801,0,53.959,24.158,53.959,53.958"/>
<rect x="1055.721" y="72.066" fill="#FFFFFF" stroke="#6387A0" stroke-width="0.5695" stroke-miterlimit="10" width="86.913" height="10.47"/>
<path fill="#6488A1" d="M1141.92,71.17c0,3.541-19.136,6.41-42.743,6.41c-23.605,0-42.742-2.869-42.742-6.41"/>
<circle fill="#FFFFFF" cx="-232.861" cy="216.971" r="50"/>
<polygon fill="#A7A9AC" points="-816.861,56 -840.861,56 -840.861,64 -832.861,64 -832.861,88 -840.861,88 -840.861,96 -808.861,96 
	-808.861,88 -816.861,88 "/>
<g>
	<defs>
		<rect id="SVGID_1_" x="-888.861" width="128" height="128"/>
	</defs>
	<clipPath id="SVGID_2_">
		<use xlink:href="#SVGID_1_"  overflow="visible"/>
	</clipPath>
	<path clip-path="url(#SVGID_2_)" fill="#A7A9AC" d="M-824.861,48c4.418,0,8-3.582,8-8s-3.582-8-8-8s-8,3.582-8,8
		S-829.279,48-824.861,48"/>
	<path clip-path="url(#SVGID_2_)" fill="#A7A9AC" d="M-824.861,8c-30.926,0-56,25.074-56,56s25.074,56,56,56s56-25.074,56-56
		S-793.936,8-824.861,8 M-824.861,116c-28.673,0-52-23.327-52-52s23.327-52,52-52s52,23.327,52,52S-796.188,116-824.861,116"/>
</g>
<g>
	<g>
		<circle fill="#A7A9AC" cx="-710.334" cy="30.527" r="10"/>
		<circle fill="#A7A9AC" cx="-676.861" cy="30.527" r="10"/>
		<circle fill="#A7A9AC" cx="-643.389" cy="30.527" r="10"/>
	</g>
	<g>
		<circle fill="#A7A9AC" cx="-676.861" cy="97.473" r="10"/>
		<circle fill="#A7A9AC" cx="-676.861" cy="64" r="10"/>
		<circle fill="#A7A9AC" cx="-676.861" cy="30.527" r="10"/>
	</g>
	<g>
		<circle fill="#A7A9AC" cx="-710.334" cy="97.473" r="10"/>
		<circle fill="#A7A9AC" cx="-710.334" cy="64" r="10"/>
		<circle fill="#A7A9AC" cx="-710.334" cy="30.527" r="10"/>
	</g>
	<g>
		<circle fill="#A7A9AC" cx="-643.389" cy="97.473" r="10"/>
		<circle fill="#A7A9AC" cx="-643.389" cy="64" r="10"/>
		<circle fill="#A7A9AC" cx="-643.389" cy="30.527" r="10"/>
	</g>
</g>
<g>
	<defs>
		<rect id="SVGID_3_" x="-588.861" y="4" width="120" height="120"/>
	</defs>
	<clipPath id="SVGID_4_">
		<use xlink:href="#SVGID_3_"  overflow="visible"/>
	</clipPath>
	<path clip-path="url(#SVGID_4_)" fill="#A7A9AC" d="M-485.795,20.932c-8.141-8.145-19.391-13.182-31.816-13.182
		s-23.676,5.037-31.816,13.182c-8.145,8.143-13.184,19.393-13.184,31.818c0,3.903,0.498,7.688,1.434,11.3
		c-0.475-0.03-0.952-0.05-1.434-0.05c-6.211,0-11.836,2.52-15.908,6.592c-4.072,4.07-6.592,9.695-6.592,15.908
		c0,6.576,2.52,12.535,6.592,16.846l15.908,16.904V109c6.211,0,11.836-2.52,15.908-6.592c2.969-2.967,5.107-6.762,6.051-11.006
		c6.739,4.027,14.617,6.348,23.041,6.348v22.5l31.816-33.811c8.145-8.621,13.184-20.533,13.184-33.689
		C-472.611,40.325-477.65,29.075-485.795,20.932 M-488.525,83.869l-25.336,26.924V97.75V94h-3.75c-8.122,0-15.881-2.339-22.52-6.686
		c0.009-0.271,0.02-0.541,0.02-0.814c0-6.213-2.52-11.838-6.592-15.908c-2.829-2.829-6.409-4.906-10.413-5.913
		c-1.148-3.819-1.745-7.828-1.745-11.929c0-11.018,4.291-21.375,12.086-29.167c7.788-7.792,18.146-12.083,29.164-12.083
		s21.376,4.291,29.166,12.083c7.793,7.792,12.084,18.149,12.084,29.167C-476.361,64.515-480.68,75.565-488.525,83.869"/>
	<path clip-path="url(#SVGID_4_)" fill="#A7A9AC" d="M-517.611,47.125c-3.106,0-5.625,2.518-5.625,5.625s2.519,5.625,5.625,5.625
		s5.625-2.518,5.625-5.625S-514.505,47.125-517.611,47.125"/>
	<path clip-path="url(#SVGID_4_)" fill="#A7A9AC" d="M-498.861,47.125c-3.106,0-5.625,2.518-5.625,5.625s2.519,5.625,5.625,5.625
		s5.625-2.518,5.625-5.625S-495.755,47.125-498.861,47.125"/>
	<path clip-path="url(#SVGID_4_)" fill="#A7A9AC" d="M-536.361,47.125c-3.105,0-5.625,2.518-5.625,5.625s2.52,5.625,5.625,5.625
		s5.625-2.518,5.625-5.625S-533.256,47.125-536.361,47.125"/>
</g>
<g>
	<defs>
		<rect id="SVGID_5_" x="-444.861" width="128" height="128"/>
	</defs>
	<clipPath id="SVGID_6_">
		<use xlink:href="#SVGID_5_"  overflow="visible"/>
	</clipPath>
	<path clip-path="url(#SVGID_6_)" fill="#A7A9AC" d="M-380.861,82.334c20.252,0,36.666-16.414,36.666-36.667S-360.609,9-380.861,9
		s-36.666,16.414-36.666,36.667S-401.113,82.334-380.861,82.334 M-380.861,12.667c18.196,0,33,14.803,33,33
		c0,18.197-14.804,32.999-33,32.999c-18.197,0-33-14.802-33-32.999C-413.861,27.47-399.059,12.667-380.861,12.667"/>
	<path clip-path="url(#SVGID_6_)" fill="#A7A9AC" d="M-351.527,89.666h-58.668c-8.1,0-14.666,6.568-14.666,14.668V119h88v-14.666
		C-336.861,96.234-343.428,89.666-351.527,89.666"/>
</g>
<polygon fill="#158ECE" points="-816.861,208.778 -840.861,208.778 -840.861,216.778 -832.861,216.778 -832.861,240.778 
	-840.861,240.778 -840.861,248.778 -808.861,248.778 -808.861,240.778 -816.861,240.778 "/>
<g>
	<defs>
		<rect id="SVGID_7_" x="-888.861" y="152.778" width="128" height="128"/>
	</defs>
	<clipPath id="SVGID_8_">
		<use xlink:href="#SVGID_7_"  overflow="visible"/>
	</clipPath>
	<path clip-path="url(#SVGID_8_)" fill="#158ECE" d="M-824.861,200.778c4.418,0,8-3.582,8-8s-3.582-8-8-8s-8,3.582-8,8
		S-829.279,200.778-824.861,200.778"/>
	<path clip-path="url(#SVGID_8_)" fill="#158ECE" d="M-824.861,160.778c-30.926,0-56,25.074-56,56s25.074,56,56,56s56-25.074,56-56
		S-793.936,160.778-824.861,160.778 M-824.861,268.778c-28.673,0-52-23.327-52-52s23.327-52,52-52s52,23.327,52,52
		S-796.188,268.778-824.861,268.778"/>
</g>
<g>
	<g>
		<circle fill="#158ECE" cx="-710.334" cy="183.306" r="10"/>
		<circle fill="#158ECE" cx="-676.861" cy="183.306" r="10"/>
		<circle fill="#158ECE" cx="-643.389" cy="183.306" r="10"/>
	</g>
	<g>
		<circle fill="#158ECE" cx="-676.861" cy="250.251" r="10"/>
		<circle fill="#158ECE" cx="-676.861" cy="216.778" r="10"/>
		<circle fill="#158ECE" cx="-676.861" cy="183.306" r="10"/>
	</g>
	<g>
		<circle fill="#158ECE" cx="-710.334" cy="250.251" r="10"/>
		<circle fill="#158ECE" cx="-710.334" cy="216.778" r="10"/>
		<circle fill="#158ECE" cx="-710.334" cy="183.306" r="10"/>
	</g>
	<g>
		<circle fill="#158ECE" cx="-643.389" cy="250.251" r="10"/>
		<circle fill="#158ECE" cx="-643.389" cy="216.778" r="10"/>
		<circle fill="#158ECE" cx="-643.389" cy="183.306" r="10"/>
	</g>
</g>
<g>
	<defs>
		<rect id="SVGID_9_" x="-588.861" y="156.778" width="120" height="120"/>
	</defs>
	<clipPath id="SVGID_10_">
		<use xlink:href="#SVGID_9_"  overflow="visible"/>
	</clipPath>
	<path clip-path="url(#SVGID_10_)" fill="#158ECE" d="M-485.795,173.71c-8.141-8.145-19.391-13.182-31.816-13.182
		s-23.676,5.037-31.816,13.182c-8.145,8.143-13.184,19.393-13.184,31.818c0,3.902,0.498,7.688,1.434,11.301
		c-0.475-0.031-0.952-0.051-1.434-0.051c-6.211,0-11.836,2.52-15.908,6.592c-4.072,4.07-6.592,9.695-6.592,15.908
		c0,6.576,2.52,12.535,6.592,16.846l15.908,16.904v-11.25c6.211,0,11.836-2.52,15.908-6.592c2.969-2.967,5.107-6.762,6.051-11.006
		c6.739,4.027,14.617,6.348,23.041,6.348v22.5l31.816-33.811c8.145-8.621,13.184-20.533,13.184-33.689
		C-472.611,193.103-477.65,181.853-485.795,173.71 M-488.525,236.647l-25.336,26.924v-13.043v-3.75h-3.75
		c-8.122,0-15.881-2.339-22.52-6.686c0.009-0.271,0.02-0.541,0.02-0.814c0-6.213-2.52-11.838-6.592-15.908
		c-2.829-2.829-6.409-4.906-10.413-5.912c-1.148-3.82-1.745-7.828-1.745-11.93c0-11.018,4.291-21.375,12.086-29.167
		c7.788-7.792,18.146-12.083,29.164-12.083s21.376,4.291,29.166,12.083c7.793,7.792,12.084,18.149,12.084,29.167
		C-476.361,217.293-480.68,228.344-488.525,236.647"/>
	<path clip-path="url(#SVGID_10_)" fill="#158ECE" d="M-517.611,199.903c-3.106,0-5.625,2.518-5.625,5.625s2.519,5.625,5.625,5.625
		s5.625-2.518,5.625-5.625S-514.505,199.903-517.611,199.903"/>
	<path clip-path="url(#SVGID_10_)" fill="#158ECE" d="M-498.861,199.903c-3.106,0-5.625,2.518-5.625,5.625s2.519,5.625,5.625,5.625
		s5.625-2.518,5.625-5.625S-495.755,199.903-498.861,199.903"/>
	<path clip-path="url(#SVGID_10_)" fill="#158ECE" d="M-536.361,199.903c-3.105,0-5.625,2.518-5.625,5.625s2.52,5.625,5.625,5.625
		s5.625-2.518,5.625-5.625S-533.256,199.903-536.361,199.903"/>
</g>
<g>
	<defs>
		<rect id="SVGID_11_" x="-444.861" y="152.778" width="128" height="128"/>
	</defs>
	<clipPath id="SVGID_12_">
		<use xlink:href="#SVGID_11_"  overflow="visible"/>
	</clipPath>
	<path clip-path="url(#SVGID_12_)" fill="#158ECE" d="M-380.861,235.112c20.252,0,36.666-16.414,36.666-36.667
		s-16.414-36.667-36.666-36.667s-36.666,16.414-36.666,36.667S-401.113,235.112-380.861,235.112 M-380.861,165.445
		c18.196,0,33,14.804,33,33c0,18.197-14.804,32.999-33,32.999c-18.197,0-33-14.802-33-32.999
		C-413.861,180.249-399.059,165.445-380.861,165.445"/>
	<path clip-path="url(#SVGID_12_)" fill="#158ECE" d="M-351.527,242.444h-58.668c-8.1,0-14.666,6.568-14.666,14.668v14.666h88
		v-14.666C-336.861,249.013-343.428,242.444-351.527,242.444"/>
</g>
<image overflow="visible" width="2166" height="1696" xlink:href="../../../health-blockchain/ui-react/public/images/qlue_fullpixel.png"  transform="matrix(0.3132 0 0 0.3271 -947.0269 462.9844)">
</image>
<text transform="matrix(1 0 0 1 66.166 368.5547)" font-family="'MyriadPro-Regular'" font-size="12">f27577</text>
<g>
	<path fill="#F15A22" d="M-209.175,63.835c-1.847,0-3.378,1.127-4.056,2.614c-0.181,0.359-0.269,0.9-0.269,1.713
		c0.134,3.11,1.622,5.903,4.731,5.903c2.433,0,3.965-2.208,3.965-5.184C-204.803,66.179-206.245,63.835-209.175,63.835z"/>
	<path fill="#F15A22" d="M-232.861,14c-27.614,0-50,22.386-50,50c0,27.613,22.386,50,50,50c27.613,0,50-22.387,50-50
		C-182.861,36.386-205.248,14-232.861,14z M-254.431,78.617h-6.625v-23.21h-0.091l-5.588,2.659l-1.127-5.137l7.752-3.606h5.679
		V78.617z M-236.623,79.112c-3.561,0-6.537-0.811-8.159-1.667l1.218-5.137c1.308,0.63,3.966,1.441,6.625,1.441
		c2.839,0,5.858-1.354,5.858-4.461c0-3.02-2.388-4.868-8.247-4.868c-1.622,0-2.749,0.09-3.966,0.27l1.937-15.368h16.136v5.634
		h-11.357l-0.632,4.507c0.632-0.09,1.174-0.09,1.894-0.09c2.795,0,5.634,0.63,7.708,2.119c2.207,1.486,3.559,3.921,3.559,7.346
		C-224.051,74.29-228.736,79.112-236.623,79.112z M-208.679,79.112c-7.796,0-11.626-5.813-11.626-12.798
		c0-5.498,2.027-10.096,5.181-13.025c2.93-2.659,6.716-4.101,11.313-4.326c1.261-0.09,2.073-0.09,2.749-0.045v5.272
		c-0.766-0.045-1.578,0-2.659,0.09c-6.083,0.497-8.788,3.606-9.554,7.031h0.134c1.444-1.487,3.471-2.344,6.22-2.344
		c4.913,0,9.06,3.471,9.06,9.553C-197.861,74.336-202.322,79.112-208.679,79.112z"/>
</g>
<g>
	<path fill="#158ECE" d="M-94.053,66.524c-1.498,1.495-0.944,3.794,0.961,5.699c1.92,1.919,4.173,2.37,5.657,0.888
		c1.496-1.498,0.931-3.781-0.975-5.688C-90.169,65.665-92.525,64.998-94.053,66.524z"/>
	<path fill="#158ECE" d="M-103.71,76.12c-0.535,0.54-0.798,0.888-0.928,1.078l2.703,2.703l0.873-0.871
		c1.105-1.105,1.207-2.312,0.351-3.17C-101.615,74.957-102.676,75.118-103.71,76.12z"/>
	<path fill="#158ECE" d="M-75.409,47.879c-1.497,1.498-0.945,3.795,0.96,5.701c1.92,1.919,4.174,2.37,5.657,0.887
		c1.498-1.498,0.931-3.781-0.975-5.687C-71.525,47.022-73.881,46.354-75.409,47.879z"/>
	<path fill="#158ECE" d="M-84.861,14c-27.614,0-50,22.386-50,50c0,27.613,22.386,50,50,50c27.613,0,50-22.387,50-50
		C-34.861,36.386-57.248,14-84.861,14z M-107.126,96l-9.671-9.67c0.567-0.8,1.44-1.848,2.793-3.2c1.367-1.366,2.604-2.079,3.78-2.21
		c1.119-0.132,2.355,0.263,3.315,1.223c0.959,0.958,1.454,2.094,1.426,3.228c-0.043,1.469-0.843,2.907-2.152,4.218
		c-0.291,0.29-0.567,0.537-0.8,0.711l3.506,3.506L-107.126,96z M-93.544,82.418c-0.436-0.117-1.469-0.685-2.966-1.601
		c-1.483-0.96-2.239-0.872-3.157,0.015l-0.668,0.669l3.854,3.854l-2.194,2.195l-9.671-9.671c0.596-0.828,1.571-1.979,2.748-3.155
		c1.455-1.455,2.689-2.252,3.942-2.398c1.045-0.116,2.05,0.248,2.95,1.148c1.25,1.251,1.222,2.995,0.684,4.145l0.043,0.043
		c0.961-0.407,1.993-0.13,3.142,0.524c1.41,0.8,2.996,1.774,3.562,1.963L-93.544,82.418z M-85.792,74.986
		c-2.908,2.908-6.805,2.414-9.598-0.378c-2.936-2.938-3.258-7.01-0.364-9.903c3.011-3.01,6.907-2.4,9.612,0.306
		C-82.929,68.225-82.929,72.122-85.792,74.986z M-74.856,64.022c-3.387,3.389-7.242,3.025-10.035,0.232
		c-3.343-3.345-2.819-7.59,0.148-10.558c1.146-1.149,2.252-1.788,2.85-1.977l1.308,2.21c-0.64,0.262-1.439,0.713-2.224,1.498
		c-1.761,1.76-2.066,4.188,0.116,6.369c1.962,1.963,4.362,2.035,6.339,0.058c0.668-0.669,1.267-1.555,1.527-2.166l2.064,1.396
		C-72.967,61.695-73.663,62.829-74.856,64.022z M-67.148,56.343c-2.909,2.908-6.806,2.414-9.599-0.378
		c-2.938-2.937-3.257-7.009-0.362-9.903c3.009-3.01,6.907-2.4,9.612,0.305C-64.284,49.581-64.284,53.478-67.148,56.343z
		 M-55.254,44.127l-5.875-1.687c-1.629-0.464-3.532-1.09-5.163-1.758l-0.028,0.057c1.354,1.237,2.765,2.589,4.364,4.188l2.95,2.952
		l-2.036,2.036l-9.8-9.801l2.588-2.588l5.628,1.556c1.613,0.451,3.416,1.091,4.959,1.76l0.043-0.043
		c-1.439-1.149-2.807-2.429-4.274-3.897l-2.864-2.865L-62.729,32l9.804,9.801L-55.254,44.127z"/>
	<path fill="#158ECE" d="M-109.045,84.395c-0.902-0.899-2.066-0.813-3.172,0.292c-0.45,0.451-0.712,0.8-0.827,1.003l2.894,2.894
		c0.231-0.145,0.479-0.363,0.8-0.683C-108.174,86.724-108.042,85.399-109.045,84.395z"/>
</g>
<g>
	<path fill="#F15A22" d="M-204.861,202.971h-56v36.001h56V202.971z M-224.895,229.54v3.432h-15.967
		c0.02-1.949,0.488-3.654,1.402-5.109s2.16-2.721,3.74-3.799c0.76-0.561,1.549-1.102,2.373-1.631c0.824-0.523,1.58-1.09,2.27-1.695
		c0.693-0.607,1.26-1.264,1.703-1.969c0.449-0.703,0.682-1.521,0.703-2.438c0-0.422-0.051-0.877-0.148-1.357
		c-0.102-0.486-0.297-0.932-0.586-1.348c-0.289-0.412-0.691-0.762-1.203-1.043c-0.514-0.279-1.18-0.422-2.004-0.422
		c-0.76,0-1.387,0.158-1.887,0.457c-0.502,0.303-0.904,0.717-1.203,1.244c-0.301,0.525-0.521,1.148-0.67,1.863
		c-0.143,0.721-0.225,1.494-0.25,2.321h-3.807c0-1.298,0.174-2.505,0.52-3.612c0.344-1.111,0.861-2.068,1.551-2.877
		c0.693-0.805,1.531-1.438,2.523-1.896c0.988-0.459,2.145-0.689,3.457-0.689c1.424,0,2.619,0.236,3.574,0.705
		c0.957,0.469,1.732,1.066,2.32,1.781c0.59,0.721,1.01,1.498,1.256,2.338c0.242,0.84,0.365,1.643,0.365,2.402
		c0,0.941-0.145,1.796-0.434,2.556c-0.289,0.764-0.68,1.461-1.172,2.102c-0.488,0.635-1.047,1.223-1.666,1.762
		c-0.623,0.539-1.271,1.047-1.938,1.516c-0.67,0.471-1.338,0.918-2.008,1.344c-0.668,0.426-1.283,0.852-1.855,1.275
		c-0.564,0.428-1.062,0.869-1.48,1.33c-0.428,0.461-0.715,0.945-0.871,1.459H-224.895z"/>
	<path fill="#F15A22" d="M-232.861,166.971c-27.614,0-50,22.385-50,50c0,27.614,22.386,50.001,50,50.001
		c27.613,0,50-22.387,50-50.001C-182.861,189.355-205.248,166.971-232.861,166.971z M-202.861,200.971v40.001h-60v-40.001v-8h60
		V200.971z"/>
</g>
<path fill="#158ECE" d="M211.998,14c-27.614,0-50,22.386-50,50.001c0,27.613,22.386,50,50,50c27.613,0,50-22.387,50-50
	C261.998,36.386,239.611,14,211.998,14z M241.998,71.001h-23v23h-14v-23h-23V57h23V34.001h14V57h23V71.001z"/>
<path fill="#158ECE" d="M-84.861,166.778c-27.614,0-50,22.387-50,50s22.386,50,50,50c27.613,0,50-22.387,50-50
	S-57.248,166.778-84.861,166.778z M-82.289,200.681c0.682-3.309,1.544-6.588,2.493-9.832c1.15-3.93,3.502-4.639,6.562-1.932
	c3.667,3.246,5.881,7.408,6.536,12.24c0.64,4.725-3.384,8.666-8.529,8.658C-80.636,209.804-83.439,206.269-82.289,200.681z
	 M-102.738,200.878c0.839-4.818,3.048-8.895,6.708-12.154c0.431-0.383,0.953-0.686,1.477-0.934c1.913-0.908,3.432-0.484,4.217,1.473
	c0.757,1.885,1.199,3.9,1.715,5.875c0.674,2.576,1.284,5.166,1.671,6.732c-0.002,5.82-3.573,8.609-8.708,7.883
	c-3.776-0.535-6.813-3.484-7.167-7.008C-102.888,202.132-102.844,201.487-102.738,200.878z M-112.056,224.019
	c-1.016-0.758-1.975-1.918-2.382-3.094c-0.712-2.059-0.979-4.273-1.442-6.467c0.455-2.021,0.705-4.025,1.375-5.877
	c0.826-2.285,2.687-2.984,4.875-1.926c3.324,1.609,6.096,4.01,8.263,6.955c2.175,2.955,1.586,7.043-1.038,9.621
	C-104.987,225.767-109.13,226.2-112.056,224.019z M-66.55,241.04c-2.102,3.516-5.282,5.225-10.031,5.203
	c-0.691-0.123-2.033-0.248-3.307-0.613c-3.898-1.115-7.711-0.857-11.597,0.199c-6.633,1.797-12.617-2.158-13.563-8.938
	c-0.182-1.301,0.045-2.791,0.527-4.02c0.631-1.607,1.537-3.178,2.62-4.525c3.216-4,6.976-7.406,11.525-9.889
	c3.1-1.689,6.239-1.775,9.384-0.285c5.913,2.801,10.704,6.934,14.249,12.445C-64.554,234.021-64.471,237.565-66.55,241.04z
	 M-55.133,220.64c-1.083,3.379-4.386,5.193-8.045,4.68c-3.337-0.469-6.15-3.453-6.403-6.771c-0.193-2.531,0.575-4.707,2.428-6.447
	c1.339-1.258,2.712-2.484,4.134-3.646c0.77-0.629,1.634-1.174,2.524-1.619c2.593-1.295,4.54-0.59,5.45,2.145
	c0.586,1.762,0.804,3.643,1.202,5.547C-54.263,216.585-54.502,218.675-55.133,220.64z"/>
<path fill="#A6CE39" d="M64,14c-27.614,0-50,22.386-50,50c0,27.613,22.386,50,50,50c27.613,0,50-22.387,50-50
	C114,36.386,91.613,14,64,14z M75.592,70.375c-2.432,0-4.738-0.498-6.855-1.369L43.592,94.15c-0.281,0.285-0.82,0.205-1.201-0.172
	l-8.258-8.258c-0.381-0.381-0.458-0.916-0.176-1.201l25.071-25.073c-0.934-2.178-1.465-4.578-1.465-7.097
	c0-9.957,8.071-18.028,18.028-18.028c2.205,0,4.289,0.45,6.24,1.176l-7.771,7.771c-1.465,1.465-1.465,3.838,0,5.303l5.303,5.303
	c1.465,1.464,3.838,1.464,5.303,0l7.771-7.771c0.726,1.952,1.18,4.039,1.18,6.247C93.617,62.305,85.546,70.375,75.592,70.375z"/>
<path fill="#23A9E1" d="M224.208,224.722c-9.213,9.219-24.202,9.219-33.421,0c-9.213-9.213-9.213-24.205,0-33.422
	c9.219-9.215,24.208-9.215,33.421,0C233.427,200.517,233.427,215.509,224.208,224.722z M229.755,185.753
	c-12.26-12.334-32.249-12.334-44.505,0c-12.343,12.266-12.343,32.178,0,44.516c11.24,11.24,28.886,12.178,41.219,2.812l-1.089,1.09
	l22.255,22.332l7.418-7.494l-22.256-22.256l-0.229,0.234C241.932,214.649,240.994,197.003,229.755,185.753z"/>
<g>
	<path fill="#55C6D6" d="M79,201.778H49v-5h-5v45h40v-45h-5V201.778z M79,236.778H49v-5h30V236.778z M79,226.778H49v-5h30V226.778z
		 M79,216.778H49v-5h30V216.778z"/>
	<path fill="#55C6D6" d="M64,166.778c-27.614,0-50,22.386-50,50c0,27.613,22.386,50,50,50c27.613,0,50-22.387,50-50
		C114,189.164,91.613,166.778,64,166.778z M89,246.778H39v-55h10v-5h30v5h10V246.778z"/>
</g>
<path fill="#158ECE" d="M492.451,89.397c0.533-0.534,1.068-1.052,1.605-1.562c0.313-0.541,2.518-2.532,3.305-2.994
	c4.186-3.603,18.113-13.416,22.63-17.448c9.976,13.38,15.241,29.162,15.811,45.082c12.923-19.091,12.72-44.407-0.607-63.301
	c5.788-8.576,10.205-17.601,13.191-26.699c-9.099,2.986-18.124,7.403-26.7,13.19c-18.893-13.326-44.209-13.528-63.3-0.606
	c15.921,0.571,31.7,5.834,45.082,15.811c-4.032,4.517-13.846,18.444-17.448,22.629c-0.462,0.787-2.453,2.991-2.994,3.305
	c-0.51,0.536-1.029,1.071-1.562,1.605c-6.887,6.887-21.546,15.962-22.545,16.962c-0.035,0.034-0.066,0.068-0.1,0.103
	c5.215-0.534,9.766,0.63,12.852,3.715v0.002l0,0c3.087,3.086,4.25,7.637,3.717,12.852c0.034-0.033,0.068-0.064,0.103-0.1
	C476.489,110.944,485.563,96.285,492.451,89.397z"/>
<path fill="#A7A9AC" d="M486.505,488.343c-3.951-20.507-21.985-36-43.645-36s-39.693,15.493-43.645,36
	c11.443-10.651,26.778-17.176,43.644-17.176C459.726,471.167,475.062,477.691,486.505,488.343"/>
<path fill="#A7A9AC" d="M452.145,518.683c-1.873-4.265-3.09-11.145-3.09-18.91c0-0.602,0.01-1.196,0.024-1.786
	c-0.129-0.481-0.008-2.847,0.175-3.551c0.35-4.667,2.949-19.498,2.949-23.401c0-14.945-3.44-28.853-9.343-40.525
	c-5.902,11.673-9.343,25.58-9.343,40.525c0,3.903,2.6,18.734,2.949,23.401c0.183,0.704,0.304,3.069,0.175,3.551
	c0.015,0.59,0.024,1.185,0.024,1.786c0,7.766-1.217,14.646-3.09,18.91"/>
<path fill="#158ECE" d="M294.083,0v128h128V0H294.083z M390.499,109c-0.569-15.92-5.835-31.702-15.811-45.082
	c-4.517,4.032-18.444,13.845-22.63,17.448c-0.787,0.462-2.991,2.453-3.305,2.994c-0.537,0.51-1.072,1.028-1.605,1.562
	c-6.888,6.888-15.962,21.547-16.962,22.547c-0.034,0.034-0.068,0.065-0.103,0.099c0.533-5.215-0.63-9.766-3.717-12.853v-0.001
	c-3.086-3.085-7.637-4.249-12.852-3.715c0.033-0.034,0.064-0.068,0.1-0.103c0.999-1,15.658-10.075,22.545-16.962
	c0.533-0.534,1.053-1.069,1.562-1.604c0.541-0.314,2.532-2.519,2.994-3.305c3.603-4.187,13.416-18.113,17.448-22.63
	c-13.382-9.977-29.161-15.24-45.082-15.811c19.091-12.922,44.407-12.72,63.3,0.606c8.576-5.788,17.602-10.205,26.7-13.19
	c-2.986,9.099-7.403,18.123-13.191,26.699C403.219,64.593,403.422,89.909,390.499,109z"/>
<g>
	<polygon fill="#1C75BC" points="319.717,465.95 330.917,454.75 319.717,443.55 	"/>
	<path fill="#1C75BC" d="M307.717,431.551l-16.8-16.8l-40,39.999l40,40.001l16.8-16.8V431.551z M290.917,434.751l12.393,12.393
		h-24.785L290.917,434.751z M290.917,474.751l-11.607-11.607h23.215L290.917,474.751z"/>
</g>
<g>
	<polygon fill="#158ECE" points="358.083,234.278 368.239,224.122 347.927,224.122 	"/>
	<path fill="#158ECE" d="M358.083,166.778c-27.614,0-50,22.387-50,50s22.386,50,50,50c27.613,0,50-22.387,50-50
		S385.696,166.778,358.083,166.778z M372.783,237.078l-14.7,14.7l-35-35.001l35-34.999l14.7,14.7V237.078z M383.283,226.578v-19.601
		l9.8,9.8L383.283,226.578z"/>
	<polygon fill="#158ECE" points="347.239,210.122 368.927,210.122 358.083,199.278 	"/>
</g>
<g>
	<path fill="#010101" d="M1005.093,238l-30.625,30.625l6.562,6.562v28.438h48.125v-28.438l6.562-6.562L1005.093,238z
		 M1026.968,301.438h-43.75V273l21.875-21.875L1026.968,273V301.438z"/>
	<g>
		<defs>
			<rect id="SVGID_13_" x="970.093" y="235.812" width="70" height="70"/>
		</defs>
		<clipPath id="SVGID_14_">
			<use xlink:href="#SVGID_13_"  overflow="visible"/>
		</clipPath>
	</g>
	<g>
		<path fill="#010101" d="M1003.658,290.145v-2.598c-1.833-0.082-3.61-0.574-4.649-1.176l0.82-3.199
			c1.148,0.629,2.763,1.203,4.54,1.203c1.559,0,2.624-0.603,2.624-1.696c0-1.039-0.874-1.694-2.897-2.378
			c-2.927-0.985-4.923-2.353-4.923-5.005c0-2.406,1.695-4.294,4.622-4.868v-2.598h2.68v2.407c1.832,0.081,3.062,0.464,3.965,0.901
			l-0.793,3.091c-0.711-0.301-1.969-0.93-3.938-0.93c-1.777,0-2.353,0.766-2.353,1.531c0,0.902,0.958,1.477,3.282,2.352
			c3.254,1.148,4.566,2.652,4.566,5.114c0,2.433-1.723,4.512-4.867,5.059v2.789H1003.658z"/>
	</g>
</g>
<g>
	<path fill="#A6CE39" d="M636.86,62.8v23.4h36V62.8l-18-18L636.86,62.8z M659.26,61.269l-0.652,2.543
		c-0.585-0.248-1.62-0.765-3.24-0.765c-1.462,0-1.936,0.629-1.936,1.26c0,0.742,0.788,1.215,2.7,1.936
		c2.679,0.944,3.759,2.182,3.759,4.208c0,2.001-1.418,3.712-4.006,4.162v2.295h-2.205V74.77c-1.508-0.067-2.971-0.472-3.825-0.968
		l0.675-2.632c0.944,0.518,2.273,0.99,3.736,0.99c1.282,0,2.158-0.496,2.158-1.396c0-0.854-0.719-1.394-2.384-1.956
		c-2.409-0.811-4.051-1.936-4.051-4.119c0-1.979,1.396-3.532,3.804-4.005v-2.138h2.205v1.981
		C657.505,60.594,658.518,60.909,659.26,61.269z"/>
	<path fill="#A6CE39" d="M654.86,14c-27.614,0-50,22.387-50,50s22.386,50,50,50c27.613,0,50-22.387,50-50S682.474,14,654.86,14z
		 M674.66,64.6V88h-39.6V64.6l-5.4-5.399l25.2-25.2l25.2,25.2L674.66,64.6z"/>
</g>
<g>
	<path fill="#55C6D6" d="M522.578,189.959c-4.256,0.014-7.713,3.476-7.701,7.712c0.012,4.231,3.504,7.712,7.73,7.701
		c4.242-0.01,7.686-3.478,7.678-7.731C530.277,193.37,526.842,189.946,522.578,189.959z"/>
	<path fill="#55C6D6" d="M488.859,194.369c-4.314-0.017-7.75,3.38-7.764,7.675c-0.014,4.236,3.416,7.715,7.621,7.73
		c4.283,0.016,7.771-3.43,7.789-7.69C496.523,197.871,493.068,194.386,488.859,194.369z"/>
	<path fill="#55C6D6" d="M506.43,214.205c-4.131-0.059-7.693,3.48-7.701,7.593c-0.01,4.303,3.348,7.766,7.643,7.822
		c4.205,0.055,7.734-3.423,7.773-7.658C514.182,217.713,510.729,214.241,506.43,214.205z"/>
	<path fill="#55C6D6" d="M505.692,166.778c-27.614,0-50,22.387-50,50s22.386,50,50,50c27.613,0,50-22.387,50-50
		S533.306,166.778,505.692,166.778z M533.889,236.959c-0.658,0.131-1.373-0.229-1.609-0.873c-0.113-0.309-0.145-0.662-0.145-0.995
		c-0.008-7.848-0.01-15.694,0-23.542c0.002-0.926-0.207-1.745-0.895-2.4c-0.551-0.525-1.201-0.816-1.969-0.816
		c-4.451-0.001-8.9-0.008-13.352,0.003c-1.568,0.004-2.799,1.239-2.881,2.849c-0.002,0.034,0.002,0.068-0.002,0.103
		c-0.148,1.376-0.061,2.664,1.291,3.483c3.732,4.119,3.684,10.272-0.111,14.392c-0.125,0.137-0.252,0.271-0.439,0.47
		c0.256,0.058,0.459,0.1,0.66,0.149c2.602,0.637,4.48,2.992,4.492,5.672c0.014,3.159,0.006,6.318,0.002,9.478
		c-0.002,0.931-0.633,1.61-1.479,1.614c-0.85,0.003-1.469-0.664-1.469-1.606c-0.004-3.04-0.037-6.081,0.01-9.121
		c0.031-1.984-1.443-3.281-3.23-3.254c-4.244,0.065-8.492,0.062-12.738,0.001c-1.662-0.024-3.189,1.255-3.15,3.163
		c0.064,3.021,0.014,6.046,0.02,9.069c0.002,0.698-0.203,1.275-0.871,1.594c-0.879,0.418-1.895-0.111-2.061-1.071
		c-0.037-0.216-0.043-0.439-0.043-0.659c-0.002-2.922-0.002-5.843,0-8.765c0.002-3.256,1.699-5.413,4.859-6.184
		c0.082-0.02,0.16-0.053,0.266-0.089c-0.324-0.371-0.65-0.715-0.945-1.083c-3.08-3.851-3.123-9.27-0.092-13.147
		c0.221-0.283,0.25-0.51,0.119-0.824c-0.449-1.086-1.512-1.838-2.701-1.84c-4.416-0.008-8.832-0.01-13.248,0
		c-1.596,0.004-2.836,1.214-2.918,2.806c-0.012,0.221-0.006,0.441-0.006,0.662c-0.002,7.746,0,15.491-0.004,23.236
		c0,0.271-0.006,0.547-0.059,0.81c-0.137,0.684-0.721,1.134-1.43,1.133c-0.711-0.002-1.281-0.45-1.424-1.139
		c-0.045-0.214-0.057-0.438-0.057-0.657c-0.004-7.864-0.006-15.729-0.002-23.593c0.002-3.041,1.732-5.335,4.537-6.043
		c0.178-0.045,0.357-0.077,0.617-0.134c-2.826-2.941-3.92-6.366-2.979-10.329c0.617-2.599,2.088-4.657,4.275-6.182
		c4.361-3.039,10.221-2.379,13.898,1.55c3.504,3.743,4.168,10.271-0.463,14.954c2,0.348,3.484,1.393,4.469,3.144
		c2.977-1.82,6.102-2.19,9.414-1.072c0.025-3.52,1.713-5.697,5.127-6.504c-5.055-5.037-3.672-12.346,0.545-15.88
		c4.164-3.489,10.396-3.278,14.332,0.549c3.955,3.849,4.58,10.702-0.088,15.341c0.379,0.097,0.711,0.164,1.031,0.267
		c2.471,0.79,4.094,3.006,4.1,5.711c0.02,7.983,0.01,15.967,0.006,23.95C535.102,236.202,534.639,236.811,533.889,236.959z"/>
</g>
<g>
	<polygon fill="#158ECE" points="636.86,215.578 636.86,238.979 672.86,238.979 672.86,215.578 654.86,197.578 	"/>
	<path fill="#158ECE" d="M654.86,166.778c-27.614,0-50,22.387-50,50s22.386,50,50,50c27.613,0,50-22.387,50-50
		S682.474,166.778,654.86,166.778z M674.66,217.378v23.4h-39.6v-23.4l-5.4-5.399l25.2-25.2l25.2,25.2L674.66,217.378z"/>
</g>
<image overflow="visible" width="420" height="336" xlink:href="../../../../Screen Shot 2017-08-18 at 3.03.35 PM.png"  transform="matrix(0.5 0 0 0.5 577.1572 320.334)">
</image>
<path fill="#5B93B9" d="M1099.237,18.608c-24,0-43.456,19.457-43.456,43.457v9.664h86.913v-9.664
	C1142.694,38.065,1123.237,18.608,1099.237,18.608z"/>
<g>
	<ellipse fill="#243A49" cx="1079.254" cy="64.498" rx="4.14" ry="5.637"/>
	<ellipse fill="#243A49" cx="1119.724" cy="63.692" rx="4.14" ry="5.638"/>
</g>
<path fill="#37637F" d="M1038.86,100.417v-1.45c0-8.896,7.211-16.106,16.107-16.106h87.785c8.896,0,16.107,7.211,16.107,16.106v1.45
	"/>
<path fill="#FFFFFF" stroke="#6387A0" stroke-width="0.6676" stroke-miterlimit="10" d="M1142.35,81.764
	c0,4.822-19.303,8.732-43.116,8.732c-23.812,0-43.116-3.91-43.116-8.732"/>
<polygon fill="#243A49" points="1099.39,72.871 1096.191,73.827 1092.994,75.588 1089.796,76.543 1086.599,76.693 1089.796,80.064 
	1092.994,82.631 1096.191,84.392 1099.39,85.348 1102.512,84.392 1105.633,82.631 1108.755,80.064 1111.876,76.693 1108.755,76.543 
	1105.633,75.588 1102.512,73.827 "/>
<path fill="#158ECE" d="M853.893,64.885h0.101V30.052h-4.584v18.219c-8.174-17.723-26.099-30.06-46.861-30.06
	c-28.443,0-51.584,23.141-51.584,51.584v16.66c0,12.675,22.977,19.514,44.595,19.514v-6c-22.09,0-38.595-7.135-38.595-13.514v-16.66
	c0-25.135,20.449-45.584,45.584-45.584c25.136,0,45.585,20.449,45.585,45.584v16.66h6v-16.66
	C854.133,68.139,854.047,66.502,853.893,64.885z"/>
<g>
	<polygon fill="#158ECE" points="803.023,74.117 799.042,75.307 795.062,77.499 791.081,78.688 787.102,78.874 791.081,83.073 
		795.062,86.266 799.042,88.457 803.023,89.647 806.91,88.457 810.795,86.266 814.682,83.073 818.567,78.874 814.682,78.688 
		810.795,77.499 806.91,75.307 	"/>
	<g>
		<path fill="#004769" d="M786.206,60.72c-0.142-0.457-0.314-0.891-0.517-1.297c-0.201-0.407-0.431-0.785-0.685-1.13
			c-0.253-0.345-0.531-0.658-0.83-0.932c-0.298-0.274-0.617-0.511-0.953-0.705c-0.335-0.192-0.687-0.343-1.052-0.445
			c-0.366-0.102-0.743-0.155-1.131-0.155c-0.387,0-0.764,0.053-1.128,0.155c-0.365,0.102-0.718,0.252-1.053,0.445
			c-0.336,0.194-0.654,0.43-0.953,0.705c-0.297,0.274-0.574,0.587-0.829,0.932c-0.254,0.345-0.483,0.723-0.685,1.13
			c-0.201,0.406-0.375,0.84-0.517,1.297c-0.111,0.359-0.187,0.742-0.258,1.127c-2.046-1.614-4.866-3.98-4.866-3.642
			c0,0.527,3.858,6.911,4.002,7.368c0.142,0.457,0.314,0.891,0.517,1.297c0.201,0.405,0.431,0.783,0.684,1.13
			c0.254,0.347,1.622,1.749,1.921,2.022c0.298,0.275,0.616,0.512,0.952,0.704l-0.003-0.022c0.012,0.008,0.023,0.017,0.035,0.024
			c0.335,0.192,0.688,0.343,1.053,0.443c0.364,0.104,0.741,0.156,1.128,0.156c0.388,0,0.765-0.053,1.131-0.156
			c0.365-0.101,0.717-0.251,1.052-0.443c0.336-0.194,0.655-0.431,0.953-0.705c0.299-0.274,0.577-0.586,0.83-0.932
			c0.254-0.345,0.483-0.724,0.685-1.13c0.202-0.406,0.375-0.841,0.517-1.296c0.144-0.457,0.253-0.938,0.327-1.435
			c0.074-0.498,0.113-1.012,0.113-1.539s-0.039-1.042-0.113-1.539S786.35,61.177,786.206,60.72z"/>
		<path fill="#004769" d="M830.051,61.847c-0.07-0.385-0.146-0.768-0.258-1.127c-0.141-0.457-0.314-0.891-0.516-1.297
			c-0.202-0.407-0.431-0.785-0.686-1.13c-0.254-0.345-0.531-0.658-0.828-0.932c-0.3-0.274-0.617-0.511-0.953-0.705
			c-0.336-0.192-0.688-0.343-1.053-0.445c-0.364-0.102-0.742-0.155-1.129-0.155c-0.388,0-0.765,0.053-1.13,0.155
			c-0.365,0.102-0.718,0.252-1.053,0.445c-0.335,0.194-0.655,0.43-0.952,0.705c-0.299,0.274-0.577,0.587-0.831,0.932
			c-0.253,0.345-0.483,0.723-0.684,1.13c-0.202,0.406-0.375,0.84-0.518,1.297c-0.143,0.457-0.252,0.936-0.326,1.433
			s-0.114,1.012-0.114,1.539s0.04,1.042,0.114,1.539c0.074,0.497,0.184,0.978,0.326,1.435c0.143,0.455,0.315,0.89,0.518,1.296
			c0.2,0.406,0.431,0.785,0.684,1.13c0.254,0.346,0.532,0.657,0.831,0.932c0.297,0.274,0.617,0.511,0.952,0.705
			c0.335,0.192,0.688,0.343,1.053,0.443c0.365,0.104,0.742,0.156,1.13,0.156c0.387,0,0.765-0.053,1.129-0.156
			c0.364-0.101,0.717-0.251,1.053-0.443c0.012-0.008,0.023-0.017,0.035-0.024l-0.003,0.022c0.336-0.192,0.653-0.429,0.952-0.704
			c0.299-0.273,1.666-1.676,1.921-2.022c0.253-0.347,0.482-0.725,0.684-1.13c0.201-0.406,0.375-0.84,0.517-1.297
			c0.144-0.457,4.001-6.841,4.001-7.368C834.917,57.867,832.098,60.233,830.051,61.847z"/>
	</g>
</g>
<path fill="#004769" d="M802.407,102.07c0,0.353-0.036,0.695-0.104,1.026c-0.067,0.332-0.168,0.651-0.298,0.957
	c-0.127,0.306-0.285,0.594-0.469,0.866c-0.184,0.271-0.391,0.522-0.622,0.753c-0.23,0.23-0.482,0.439-0.755,0.623
	c-0.27,0.184-0.561,0.34-0.864,0.471c-0.305,0.128-0.624,0.228-0.956,0.295c-0.332,0.068-0.674,0.104-1.026,0.104h-1.227h-1.228
	h-1.227h-1.226h-1.227h-1.227h-1.228h-1.226c-0.353,0-0.695-0.035-1.027-0.104c-0.331-0.067-0.65-0.167-0.956-0.295
	c-0.305-0.131-0.594-0.287-0.864-0.471c-0.271-0.184-0.524-0.393-0.755-0.623c-0.231-0.23-0.439-0.482-0.622-0.753
	c-0.183-0.272-0.342-0.561-0.469-0.866c-0.13-0.306-0.229-0.625-0.298-0.957c-0.067-0.331-0.103-0.674-0.103-1.026l0,0l0,0l0,0l0,0
	l0,0l0,0l0,0l0,0c0-0.352,0.035-0.694,0.103-1.026c0.068-0.332,0.168-0.651,0.298-0.956c0.127-0.307,0.286-0.595,0.469-0.867
	c0.183-0.271,0.391-0.522,0.622-0.753c0.23-0.23,0.483-0.44,0.755-0.623c0.271-0.184,0.56-0.34,0.864-0.47
	c0.306-0.129,0.625-0.229,0.956-0.297c0.332-0.067,0.675-0.103,1.027-0.103h1.226h1.228h1.227h1.227h1.226h1.227h1.228h1.227
	c0.353,0,0.694,0.035,1.026,0.103c0.332,0.068,0.651,0.168,0.956,0.297c0.304,0.13,0.595,0.286,0.864,0.47
	c0.272,0.183,0.524,0.393,0.755,0.623c0.231,0.23,0.438,0.482,0.622,0.753c0.184,0.272,0.342,0.561,0.469,0.867
	c0.13,0.305,0.23,0.624,0.298,0.956S802.407,101.719,802.407,102.07L802.407,102.07L802.407,102.07L802.407,102.07L802.407,102.07
	L802.407,102.07L802.407,102.07L802.407,102.07L802.407,102.07z"/>
<path fill="#004769" d="M850.947,56.656L850.947,56.656L850.947,56.656L850.947,56.656L850.947,56.656L850.947,56.656
	L850.947,56.656L850.947,56.656L850.947,56.656c0.691,0,1.363,0.056,2.014,0.163c0.651,0.106,1.278,0.264,1.878,0.466
	c0.6,0.203,1.166,0.451,1.696,0.737c0.535,0.289,1.031,0.615,1.482,0.978c0.451,0.362,0.86,0.758,1.22,1.183
	c0.358,0.426,0.67,0.881,0.923,1.359c0.251,0.479,0.449,0.981,0.581,1.502c0.136,0.521,0.206,1.06,0.206,1.613v1.176v1.178v1.177
	v1.178v1.178v1.176v1.179v1.177c0,0.553-0.07,1.092-0.206,1.611c-0.132,0.521-0.33,1.023-0.581,1.502
	c-0.253,0.479-0.564,0.934-0.923,1.357c-0.359,0.428-0.769,0.823-1.22,1.186c-0.451,0.361-0.947,0.688-1.482,0.978
	c-0.53,0.288-1.097,0.535-1.696,0.737c-0.6,0.201-1.227,0.358-1.878,0.466c-0.65,0.106-1.322,0.162-2.014,0.162"/>
<path fill="#004769" d="M754.15,82.072L754.15,82.072L754.15,82.072L754.15,82.072L754.15,82.072L754.15,82.072L754.15,82.072
	L754.15,82.072L754.15,82.072c-0.692,0-1.366-0.056-2.017-0.162c-0.65-0.107-1.278-0.265-1.878-0.466
	c-0.599-0.202-1.165-0.449-1.697-0.737c-0.532-0.289-1.027-0.616-1.479-0.978c-0.454-0.362-0.862-0.758-1.22-1.186
	c-0.361-0.424-0.672-0.879-0.923-1.357s-0.449-0.98-0.582-1.502c-0.135-0.52-0.204-1.059-0.204-1.611v-1.177v-1.179v-1.176v-1.178
	v-1.178V67.01v-1.178v-1.176c0-0.553,0.069-1.092,0.204-1.613c0.133-0.521,0.331-1.022,0.582-1.502
	c0.251-0.478,0.562-0.933,0.923-1.359c0.357-0.425,0.766-0.821,1.22-1.183c0.452-0.363,0.947-0.689,1.479-0.978
	c0.532-0.287,1.099-0.535,1.697-0.737c0.6-0.202,1.228-0.359,1.878-0.466s1.324-0.163,2.017-0.163"/>
<path fill="#004769" d="M857.795,26.062c0,0.415-0.042,0.818-0.121,1.209c-0.079,0.39-0.196,0.767-0.349,1.126
	c-0.154,0.359-0.338,0.7-0.553,1.019c-0.217,0.32-0.464,0.617-0.734,0.888c-0.272,0.271-0.57,0.518-0.889,0.733
	c-0.318,0.216-0.659,0.402-1.02,0.553c-0.358,0.152-0.734,0.271-1.126,0.35c-0.39,0.08-0.795,0.122-1.209,0.122
	c-0.413,0-0.817-0.042-1.209-0.122c-0.392-0.08-0.768-0.198-1.126-0.35c-0.36-0.151-0.7-0.337-1.02-0.553
	c-0.32-0.215-0.616-0.461-0.888-0.733c-0.271-0.271-0.517-0.568-0.735-0.888c-0.215-0.319-0.398-0.66-0.552-1.019
	c-0.153-0.359-0.271-0.736-0.35-1.126c-0.078-0.391-0.121-0.794-0.121-1.209c0-0.415,0.043-0.819,0.121-1.209
	c0.079-0.39,0.196-0.767,0.35-1.127c0.153-0.358,0.337-0.699,0.552-1.019c0.219-0.319,0.464-0.617,0.735-0.888
	s0.567-0.517,0.888-0.732c0.319-0.216,0.659-0.402,1.02-0.553c0.358-0.152,0.734-0.271,1.126-0.35
	c0.392-0.08,0.796-0.122,1.209-0.122c0.414,0,0.819,0.042,1.209,0.122c0.392,0.079,0.768,0.198,1.126,0.35
	c0.36,0.151,0.701,0.337,1.02,0.553c0.318,0.215,0.616,0.461,0.889,0.732c0.271,0.271,0.518,0.569,0.734,0.888
	c0.215,0.319,0.398,0.66,0.553,1.019c0.152,0.36,0.27,0.737,0.349,1.127C857.753,25.243,857.795,25.646,857.795,26.062z"/>
<g>
	<ellipse fill="#243A49" cx="778.047" cy="217.968" rx="5.14" ry="7"/>
	<ellipse fill="#243A49" cx="828.297" cy="216.968" rx="5.14" ry="7"/>
</g>
<polygon fill="#243A49" points="803.36,228.366 799.39,229.552 795.419,231.739 791.448,232.925 787.479,233.11 791.448,237.298 
	795.419,240.483 799.39,242.669 803.36,243.856 807.237,242.669 811.112,240.483 814.989,237.298 818.864,233.11 814.989,232.925 
	811.112,231.739 807.237,229.552 "/>
<path fill="#243A49" d="M858.481,217.806v-36.394h-4v20.89c-8.466-20.168-28.415-34.369-51.622-34.369
	c-30.855,0-55.958,25.104-55.958,55.959v18.503c0,11.406,21.17,20.341,48.195,20.341v-4c-26.437,0-44.195-8.449-44.195-16.341
	v-18.503c0-28.65,23.309-51.959,51.958-51.959c26.676,0,48.709,20.209,51.622,46.119v1.36h0.131c0.127,1.478,0.206,2.97,0.206,4.479
	v18.503h4v-18.503C858.818,221.835,858.699,219.806,858.481,217.806z"/>
<path fill="#243A49" d="M801.41,259.736c0,2.761-2.238,5-4.999,5h-9.629c-2.761,0-4.999-2.239-4.999-5l0,0c0-2.761,2.238-5,4.999-5
	h9.629C799.172,254.736,801.41,256.976,801.41,259.736L801.41,259.736z"/>
<path fill="#243A49" d="M856.443,212.291L856.443,212.291c3.866,0,7,3.134,7,7v8.242c0,3.865-3.134,7-7,7"/>
<path fill="#243A49" d="M749.276,234.533L749.276,234.533c-3.866,0-7-3.135-7-7v-8.242c0-3.866,3.134-7,7-7"/>
<circle fill="#243A49" cx="856.536" cy="180.319" r="5"/>
<g>
	<path fill="none" stroke="#158ECE" stroke-miterlimit="10" d="M851.225-82.276c3.344-4.467,9.665-5.376,14.133-2.033"/>
	<line fill="none" stroke="#158ECE" stroke-miterlimit="10" x1="851.225" y1="-91.206" x2="854.151" y2="-84.908"/>
	<line fill="none" stroke="#158ECE" stroke-miterlimit="10" x1="855.08" y1="-93.107" x2="856.575" y2="-86.325"/>
	<line fill="none" stroke="#158ECE" stroke-miterlimit="10" x1="865.258" y1="-91.911" x2="863.604" y2="-85.165"/>
	<line fill="none" stroke="#158ECE" stroke-miterlimit="10" x1="860.215" y1="-93.187" x2="860.021" y2="-86.245"/>
	<path fill="none" stroke="#158ECE" stroke-miterlimit="10" d="M915.607-81.951c-3.344-4.467-9.665-5.376-14.133-2.033"/>
	<line fill="none" stroke="#158ECE" stroke-miterlimit="10" x1="915.607" y1="-90.88" x2="912.681" y2="-84.583"/>
	<line fill="none" stroke="#158ECE" stroke-miterlimit="10" x1="911.752" y1="-92.782" x2="910.257" y2="-86"/>
	<line fill="none" stroke="#158ECE" stroke-miterlimit="10" x1="901.574" y1="-91.585" x2="903.228" y2="-84.839"/>
	<line fill="none" stroke="#158ECE" stroke-miterlimit="10" x1="906.617" y1="-92.862" x2="906.812" y2="-85.919"/>
</g>
<polygon fill="#158ECE" points="951.36,75.588 947.39,76.773 943.419,78.961 939.448,80.146 935.479,80.332 939.448,84.52 
	943.419,87.705 947.39,89.891 951.36,91.078 955.237,89.891 959.112,87.705 962.989,84.52 966.864,80.332 962.989,80.146 
	959.112,78.961 955.237,76.773 "/>
<path fill="none" stroke="#158ECE" stroke-width="4" stroke-miterlimit="10" d="M1004.818,89.616v-7.965v1.462v-12
	c0-29.8-24.158-53.959-53.959-53.959c-29.8,0-53.958,24.159-53.958,53.959v12v-1.462v7.965"/>
<line fill="none" stroke="#158ECE" stroke-width="4" stroke-miterlimit="10" x1="1004.481" y1="66.634" x2="1004.481" y2="28.634"/>
<path fill="none" stroke="#158ECE" stroke-width="4" stroke-miterlimit="10" d="M896.901,89.616
	c0,10.138,20.662,18.341,46.195,18.341"/>
<g>
	<g>
		<ellipse fill="#004769" cx="926.047" cy="65.189" rx="5.14" ry="7"/>
		<ellipse fill="#004769" cx="976.297" cy="64.189" rx="5.14" ry="7"/>
	</g>
	<path fill="#004769" d="M949.41,106.958c0,2.761-2.238,5-4.999,5h-9.629c-2.761,0-4.999-2.239-4.999-5l0,0c0-2.761,2.238-5,4.999-5
		h9.629C947.172,101.958,949.41,104.197,949.41,106.958L949.41,106.958z"/>
	<path fill="#004769" d="M1004.443,59.513L1004.443,59.513c3.866,0,7,3.134,7,7v8.242c0,3.865-3.134,7-7,7"/>
	<path fill="#004769" d="M897.276,81.755L897.276,81.755c-3.866,0-7-3.135-7-7v-8.242c0-3.866,3.134-7,7-7"/>
	<circle fill="#004769" cx="1004.536" cy="27.541" r="5"/>
</g>
<rect x="1021.048" y="382.688" fill="#FFDD00" width="60.862" height="60.862"/>
<rect x="936.433" y="382.688" fill="#A6CE39" width="60.862" height="60.862"/>
<rect x="1105.658" y="382.688" fill="#F15A22" width="60.862" height="60.862"/>
<rect x="856.43" y="382.688" fill="#158ECE" width="60.862" height="60.862"/>
<path fill="none" stroke="#158ECE" stroke-width="3.2742" stroke-miterlimit="10" d="M1291.028,84.457v-6.521v1.197v-9.822
	c0-24.393-19.774-44.168-44.168-44.168c-24.393,0-44.167,19.775-44.167,44.168v9.822v-1.197v6.521"/>
<line fill="none" stroke="#158ECE" stroke-width="3.3333" stroke-miterlimit="10" x1="1291.545" y1="63.846" x2="1291.545" y2="32.18"/>
<path fill="none" stroke="#158ECE" stroke-width="3.2742" stroke-miterlimit="10" d="M1202.693,84.457
	c0,8.297,16.913,15.012,37.813,15.012"/>
<g>
	<polygon fill="#158ECE" points="1247.293,73.238 1243.673,74.32 1240.055,76.313 1236.437,77.395 1232.818,77.563 1236.437,81.381 
		1240.055,84.283 1243.673,86.275 1247.293,87.358 1250.826,86.275 1254.357,84.283 1257.892,81.381 1261.424,77.563 
		1257.892,77.395 1254.357,76.313 1250.826,74.32 	"/>
	<g>
		<path fill="#004769" d="M1232.004,61.06c-0.128-0.415-0.285-0.81-0.47-1.179c-0.183-0.37-0.391-0.714-0.622-1.027
			c-0.229-0.313-0.482-0.598-0.755-0.847c-0.271-0.25-0.561-0.464-0.866-0.641c-0.305-0.174-0.624-0.311-0.956-0.404
			c-0.333-0.093-0.676-0.141-1.028-0.141c-0.352,0-0.694,0.048-1.025,0.141c-0.332,0.093-0.652,0.229-0.957,0.404
			c-0.305,0.177-0.595,0.392-0.866,0.641c-0.27,0.249-0.521,0.534-0.754,0.847c-0.23,0.313-0.439,0.657-0.622,1.027
			c-0.183,0.369-0.341,0.764-0.47,1.179c-0.102,0.326-0.17,0.675-0.234,1.024c-1.859-1.467-4.424-3.619-4.424-3.311
			c0,0.48,3.508,6.283,3.639,6.699c0.128,0.414,0.285,0.809,0.469,1.178s0.392,0.713,0.622,1.027c0.23,0.316,1.475,1.59,1.746,1.84
			c0.271,0.25,0.561,0.465,0.865,0.639l-0.002-0.02c0.011,0.006,0.021,0.015,0.031,0.021c0.305,0.176,0.625,0.312,0.957,0.403
			c0.331,0.095,0.674,0.142,1.025,0.142c0.353,0,0.695-0.047,1.028-0.142c0.332-0.091,0.651-0.228,0.956-0.403
			c0.306-0.176,0.596-0.391,0.866-0.641c0.272-0.25,0.525-0.533,0.755-0.848c0.231-0.312,0.439-0.656,0.622-1.027
			c0.185-0.369,0.342-0.764,0.47-1.178c0.131-0.414,0.23-0.852,0.298-1.303c0.067-0.453,0.103-0.92,0.103-1.4
			c0-0.479-0.035-0.947-0.103-1.399C1232.234,61.912,1232.135,61.475,1232.004,61.06z"/>
		<path fill="#004769" d="M1271.863,62.084c-0.064-0.35-0.133-0.698-0.234-1.024c-0.128-0.415-0.286-0.81-0.469-1.179
			c-0.184-0.37-0.392-0.714-0.623-1.027s-0.483-0.598-0.753-0.847c-0.272-0.25-0.562-0.464-0.867-0.641
			c-0.305-0.174-0.625-0.311-0.957-0.404c-0.331-0.093-0.674-0.141-1.025-0.141c-0.353,0-0.695,0.048-1.027,0.141
			s-0.652,0.229-0.957,0.404c-0.305,0.177-0.596,0.392-0.866,0.641c-0.271,0.249-0.524,0.534-0.755,0.847s-0.439,0.657-0.622,1.027
			c-0.184,0.369-0.341,0.764-0.47,1.179c-0.13,0.415-0.229,0.852-0.297,1.303c-0.067,0.452-0.104,0.92-0.104,1.399
			c0,0.48,0.036,0.947,0.104,1.4c0.067,0.451,0.167,0.889,0.297,1.303c0.129,0.414,0.286,0.809,0.47,1.178
			c0.183,0.371,0.392,0.715,0.622,1.027c0.23,0.314,0.483,0.598,0.755,0.848c0.271,0.25,0.562,0.465,0.866,0.641
			s0.625,0.312,0.957,0.403c0.332,0.095,0.675,0.142,1.027,0.142c0.352,0,0.694-0.047,1.025-0.142
			c0.332-0.091,0.652-0.228,0.957-0.403c0.011-0.007,0.021-0.016,0.032-0.021l-0.003,0.02c0.306-0.174,0.595-0.389,0.866-0.639
			s1.515-1.523,1.746-1.84c0.229-0.314,0.438-0.658,0.621-1.027c0.184-0.369,0.341-0.764,0.47-1.178
			c0.131-0.416,3.638-6.219,3.638-6.699C1276.287,58.466,1273.724,60.618,1271.863,62.084z"/>
	</g>
</g>
<path fill="#004769" d="M1245.675,98.65c0,0.283-0.029,0.559-0.084,0.825c-0.054,0.267-0.135,0.522-0.238,0.769
	c-0.103,0.246-0.229,0.477-0.377,0.695c-0.147,0.218-0.314,0.42-0.5,0.605s-0.388,0.353-0.606,0.501
	c-0.216,0.146-0.45,0.273-0.694,0.378c-0.244,0.102-0.501,0.182-0.768,0.237c-0.268,0.054-0.541,0.083-0.824,0.083h-0.986h-0.985
	h-0.985h-0.984h-0.985h-0.985h-0.985h-0.984c-0.283,0-0.559-0.029-0.826-0.083c-0.266-0.056-0.521-0.136-0.768-0.237
	c-0.244-0.104-0.477-0.231-0.694-0.378c-0.218-0.148-0.421-0.315-0.606-0.501s-0.353-0.388-0.5-0.605
	c-0.146-0.219-0.274-0.449-0.376-0.695c-0.104-0.246-0.184-0.502-0.239-0.769c-0.054-0.267-0.082-0.542-0.082-0.825l0,0l0,0l0,0l0,0
	l0,0l0,0l0,0l0,0c0-0.281,0.028-0.557,0.082-0.823c0.056-0.267,0.135-0.524,0.239-0.769c0.102-0.246,0.229-0.479,0.376-0.696
	c0.147-0.217,0.314-0.42,0.5-0.605c0.186-0.185,0.389-0.354,0.606-0.5s0.45-0.273,0.694-0.378c0.246-0.104,0.502-0.184,0.768-0.237
	c0.268-0.056,0.543-0.083,0.826-0.083h0.984h0.985h0.985h0.985h0.984h0.985h0.985h0.986c0.283,0,0.557,0.027,0.824,0.083
	c0.267,0.054,0.523,0.134,0.768,0.237c0.244,0.104,0.479,0.231,0.694,0.378c0.219,0.146,0.421,0.315,0.606,0.5
	c0.186,0.186,0.353,0.389,0.5,0.605c0.147,0.218,0.274,0.45,0.377,0.696c0.104,0.244,0.185,0.502,0.238,0.769
	C1245.646,98.094,1245.675,98.369,1245.675,98.65L1245.675,98.65L1245.675,98.65L1245.675,98.65L1245.675,98.65L1245.675,98.65
	L1245.675,98.65L1245.675,98.65L1245.675,98.65z"/>
<path fill="#004769" d="M1290.312,58.515L1290.312,58.515L1290.312,58.515L1290.312,58.515L1290.312,58.515L1290.312,58.515
	L1290.312,58.515L1290.312,58.515L1290.312,58.515c0.452,0,0.893,0.045,1.319,0.133c0.426,0.086,0.837,0.215,1.229,0.381
	c0.392,0.166,0.763,0.369,1.111,0.604c0.35,0.236,0.675,0.503,0.97,0.8c0.296,0.297,0.564,0.621,0.8,0.969
	c0.235,0.349,0.438,0.721,0.604,1.112c0.164,0.392,0.294,0.804,0.38,1.23c0.089,0.425,0.135,0.867,0.135,1.32v0.963v0.963v0.965
	v0.963v0.965v0.963v0.965v0.963c0,0.453-0.046,0.894-0.135,1.318c-0.086,0.428-0.216,0.838-0.38,1.23
	c-0.166,0.391-0.369,0.764-0.604,1.111c-0.235,0.35-0.504,0.674-0.8,0.971c-0.295,0.295-0.62,0.562-0.97,0.799
	c-0.349,0.236-0.72,0.439-1.111,0.604c-0.393,0.166-0.804,0.295-1.229,0.383c-0.427,0.086-0.867,0.132-1.319,0.132"/>
<path fill="#004769" d="M1203.409,79.321L1203.409,79.321L1203.409,79.321L1203.409,79.321L1203.409,79.321L1203.409,79.321
	L1203.409,79.321L1203.409,79.321L1203.409,79.321c-0.452,0-0.894-0.046-1.319-0.132c-0.427-0.088-0.838-0.217-1.229-0.383
	c-0.393-0.164-0.764-0.367-1.113-0.604c-0.348-0.236-0.672-0.504-0.968-0.799c-0.298-0.297-0.565-0.621-0.8-0.971
	c-0.235-0.348-0.439-0.721-0.604-1.111c-0.164-0.393-0.294-0.803-0.381-1.23c-0.088-0.425-0.133-0.865-0.133-1.318v-0.963v-0.965
	v-0.963v-0.965v-0.963V66.99v-0.963v-0.963c0-0.454,0.045-0.895,0.133-1.32c0.087-0.426,0.217-0.838,0.381-1.23
	c0.165-0.391,0.369-0.763,0.604-1.112c0.234-0.348,0.502-0.672,0.8-0.969c0.296-0.297,0.62-0.564,0.968-0.8
	c0.35-0.235,0.721-0.438,1.113-0.604c0.392-0.166,0.803-0.294,1.229-0.381c0.426-0.088,0.867-0.133,1.319-0.133"/>
<path fill="#004769" d="M1296.542,27.552c0,0.34-0.035,0.67-0.1,0.989c-0.064,0.321-0.161,0.628-0.285,0.923
	c-0.126,0.293-0.277,0.573-0.453,0.834c-0.177,0.261-0.379,0.505-0.601,0.727c-0.223,0.221-0.467,0.423-0.728,0.599
	c-0.261,0.177-0.539,0.33-0.834,0.452c-0.294,0.125-0.602,0.222-0.922,0.288c-0.319,0.066-0.65,0.1-0.989,0.1s-0.67-0.034-0.99-0.1
	c-0.32-0.065-0.628-0.162-0.922-0.288c-0.294-0.123-0.572-0.275-0.834-0.452c-0.262-0.176-0.505-0.378-0.727-0.599
	c-0.223-0.221-0.423-0.465-0.602-0.727c-0.176-0.261-0.327-0.542-0.452-0.834c-0.125-0.294-0.221-0.602-0.286-0.923
	c-0.063-0.319-0.099-0.649-0.099-0.989c0-0.339,0.035-0.67,0.099-0.99c0.065-0.319,0.161-0.628,0.286-0.922
	c0.125-0.294,0.276-0.572,0.452-0.834c0.179-0.26,0.379-0.504,0.602-0.727c0.222-0.222,0.465-0.423,0.727-0.6
	c0.262-0.176,0.54-0.329,0.834-0.453s0.602-0.221,0.922-0.287c0.32-0.065,0.651-0.099,0.99-0.099s0.67,0.034,0.989,0.099
	c0.32,0.065,0.628,0.163,0.922,0.287c0.295,0.124,0.573,0.277,0.834,0.453c0.261,0.177,0.505,0.377,0.728,0.6
	c0.222,0.222,0.424,0.466,0.601,0.727c0.176,0.262,0.327,0.541,0.453,0.834c0.124,0.293,0.221,0.603,0.285,0.922
	C1296.507,26.882,1296.542,27.213,1296.542,27.552z"/>
<path fill="#158ECE" d="M1432.86,6h-76c-11.046,0-20,8.954-20,20v76c0,11.046,8.954,20,20,20h76c11.046,0,20-8.954,20-20V26
	C1452.86,14.954,1443.906,6,1432.86,6z M1421.874,101.5c-0.475-13.267-4.862-26.419-13.176-37.568
	c-3.764,3.36-15.37,11.538-18.858,14.54c-0.656,0.385-2.492,2.045-2.754,2.495c-0.447,0.425-0.894,0.856-1.338,1.302
	c-5.739,5.739-13.302,17.955-14.135,18.788c-0.028,0.029-0.057,0.056-0.086,0.083c0.445-4.346-0.524-8.139-3.097-10.71v-0.001
	c-2.571-2.571-6.364-3.541-10.71-3.096c0.027-0.029,0.054-0.058,0.083-0.086c0.833-0.833,13.049-8.396,18.788-14.135
	c0.443-0.445,0.877-0.892,1.302-1.338c0.45-0.262,2.11-2.098,2.495-2.754c3.002-3.488,11.18-15.094,14.54-18.857
	c-11.151-8.314-24.301-12.7-37.568-13.177c15.909-10.768,37.006-10.6,52.75,0.506c7.146-4.823,14.668-8.504,22.25-10.992
	c-2.488,7.582-6.169,15.103-10.993,22.249C1432.474,64.494,1432.643,85.591,1421.874,101.5z"/>
<path fill="#FFFFFF" d="M1531.926,319.111c0.533-0.533,1.068-1.051,1.605-1.561c0.313-0.541,2.518-2.533,3.305-2.994
	c4.186-3.604,18.113-13.416,22.63-17.449c9.976,13.381,15.241,29.162,15.811,45.082c12.923-19.09,12.72-44.406-0.607-63.301
	c5.788-8.576,10.205-17.6,13.191-26.699c-9.099,2.986-18.124,7.404-26.7,13.191c-18.893-13.326-44.209-13.529-63.3-0.607
	c15.921,0.572,31.7,5.836,45.082,15.812c-4.032,4.516-13.846,18.443-17.448,22.629c-0.462,0.787-2.453,2.99-2.994,3.305
	c-0.51,0.535-1.029,1.07-1.562,1.605c-6.887,6.887-21.546,15.961-22.545,16.961c-0.035,0.035-0.066,0.068-0.1,0.104
	c5.215-0.535,9.766,0.629,12.852,3.715v0.002l0,0c3.087,3.086,4.25,7.637,3.717,12.852c0.034-0.033,0.068-0.064,0.103-0.1
	C1515.964,340.658,1525.038,326,1531.926,319.111z"/>
<g>
	<path fill="#55C6D6" d="M-17.938,460.343c9.925,0,18-8.073,18-17.999s-8.075-18-18-18c-9.926,0-18,8.074-18,18
		S-27.864,460.343-17.938,460.343z"/>
	<path fill="#55C6D6" d="M-17.938,402.343c-27.614,0-50,22.386-50,50c0,27.613,22.386,50,50,50c27.613,0,50-22.387,50-50
		C32.062,424.729,9.675,402.343-17.938,402.343z M-17.938,422.343c11.047,0,20,8.953,20,20.001c0,11.046-8.953,19.999-20,19.999
		s-20-8.953-20-19.999C-37.938,431.296-28.985,422.343-17.938,422.343z M6.062,482.343h-48v-8c0-4.418,3.582-8,8-8h32
		c4.418,0,8,3.582,8,8V482.343z"/>
</g>
<g>
	<path fill="#158ECE" d="M-209.175-73.165c-1.847,0-3.378,1.127-4.056,2.614c-0.181,0.359-0.269,0.9-0.269,1.713
		c0.134,3.11,1.622,5.903,4.731,5.903c2.433,0,3.965-2.208,3.965-5.184C-204.803-70.821-206.245-73.165-209.175-73.165z"/>
	<path fill="#158ECE" d="M-232.861-123c-27.614,0-50,22.386-50,50c0,27.613,22.386,50,50,50c27.613,0,50-22.387,50-50
		C-182.861-100.614-205.248-123-232.861-123z M-254.431-58.383h-6.625v-23.21h-0.091l-5.588,2.659l-1.127-5.137l7.752-3.607h5.679
		V-58.383z M-236.623-57.888c-3.561,0-6.537-0.811-8.159-1.667l1.218-5.137c1.308,0.63,3.966,1.441,6.625,1.441
		c2.839,0,5.858-1.354,5.858-4.461c0-3.02-2.388-4.867-8.247-4.867c-1.622,0-2.749,0.09-3.966,0.27l1.937-15.369h16.136v5.635
		h-11.357l-0.632,4.507c0.632-0.091,1.174-0.091,1.894-0.091c2.795,0,5.634,0.631,7.708,2.119c2.207,1.486,3.559,3.921,3.559,7.346
		C-224.051-62.71-228.736-57.888-236.623-57.888z M-208.679-57.888c-7.796,0-11.626-5.813-11.626-12.798
		c0-5.498,2.027-10.096,5.181-13.025c2.93-2.658,6.716-4.101,11.313-4.326c1.261-0.09,2.073-0.09,2.749-0.045v5.272
		c-0.766-0.046-1.578,0-2.659,0.09c-6.083,0.497-8.788,3.606-9.554,7.031h0.134c1.444-1.487,3.471-2.345,6.22-2.345
		c4.913,0,9.06,3.472,9.06,9.554C-197.861-62.664-202.322-57.888-208.679-57.888z"/>
</g>
<g>
	<path fill="#55C6D6" d="M-95.773-70.143c-1.498,1.495-0.944,3.794,0.961,5.699c1.92,1.919,4.173,2.37,5.657,0.888
		c1.496-1.498,0.931-3.781-0.975-5.688C-91.89-71.002-94.246-71.669-95.773-70.143z"/>
	<path fill="#55C6D6" d="M-105.431-60.547c-0.535,0.54-0.798,0.888-0.928,1.078l2.703,2.703l0.873-0.871
		c1.105-1.105,1.207-2.312,0.351-3.17C-103.336-61.71-104.396-61.549-105.431-60.547z"/>
	<path fill="#55C6D6" d="M-77.13-88.789c-1.497,1.498-0.945,3.796,0.96,5.701c1.92,1.92,4.174,2.37,5.657,0.888
		c1.498-1.498,0.931-3.781-0.975-5.687C-73.246-89.646-75.602-90.314-77.13-88.789z"/>
	<path fill="#55C6D6" d="M-86.582-122.667c-27.614,0-50,22.386-50,50c0,27.613,22.386,50,50,50c27.613,0,50-22.387,50-50
		C-36.582-100.282-58.969-122.667-86.582-122.667z M-108.847-40.667l-9.671-9.67c0.567-0.8,1.44-1.848,2.793-3.2
		c1.367-1.366,2.604-2.079,3.78-2.21c1.119-0.132,2.355,0.263,3.315,1.223c0.959,0.958,1.454,2.094,1.426,3.228
		c-0.043,1.469-0.843,2.907-2.152,4.218c-0.291,0.29-0.567,0.537-0.8,0.711l3.506,3.506L-108.847-40.667z M-95.265-54.25
		c-0.436-0.117-1.469-0.685-2.966-1.601c-1.483-0.96-2.239-0.872-3.157,0.015l-0.668,0.669l3.854,3.854l-2.194,2.195l-9.671-9.671
		c0.596-0.828,1.571-1.979,2.748-3.155c1.455-1.455,2.689-2.252,3.942-2.398c1.045-0.116,2.05,0.248,2.95,1.148
		c1.25,1.251,1.222,2.995,0.684,4.145l0.043,0.043c0.961-0.407,1.993-0.13,3.142,0.524c1.41,0.8,2.996,1.774,3.562,1.963
		L-95.265-54.25z M-87.513-61.681c-2.908,2.908-6.805,2.414-9.598-0.378c-2.936-2.938-3.258-7.01-0.364-9.903
		c3.011-3.01,6.907-2.399,9.612,0.307C-84.649-68.443-84.649-64.545-87.513-61.681z M-76.577-72.646
		c-3.387,3.39-7.242,3.025-10.035,0.232c-3.343-3.345-2.819-7.59,0.148-10.557c1.146-1.149,2.252-1.789,2.85-1.978l1.308,2.21
		c-0.64,0.262-1.439,0.713-2.224,1.498c-1.761,1.76-2.066,4.188,0.116,6.369c1.962,1.963,4.362,2.035,6.339,0.058
		c0.668-0.669,1.267-1.556,1.527-2.166l2.064,1.396C-74.688-74.972-75.384-73.838-76.577-72.646z M-68.869-80.325
		c-2.909,2.908-6.806,2.414-9.599-0.378c-2.938-2.938-3.257-7.01-0.362-9.902c3.009-3.01,6.907-2.4,9.612,0.305
		C-66.005-87.087-66.005-83.189-68.869-80.325z M-56.975-92.541l-5.875-1.687c-1.629-0.464-3.532-1.091-5.163-1.759l-0.028,0.058
		c1.354,1.237,2.765,2.589,4.364,4.188l2.95,2.951l-2.036,2.036l-9.8-9.801l2.588-2.589l5.628,1.557
		c1.613,0.45,3.416,1.09,4.959,1.76l0.043-0.044c-1.439-1.149-2.807-2.429-4.274-3.897l-2.864-2.865l2.033-2.035l9.804,9.801
		L-56.975-92.541z"/>
	<path fill="#55C6D6" d="M-110.766-52.273c-0.902-0.899-2.066-0.813-3.172,0.292c-0.45,0.451-0.712,0.8-0.827,1.003l2.894,2.894
		c0.231-0.145,0.479-0.363,0.8-0.683C-109.895-49.944-109.763-51.268-110.766-52.273z"/>
</g>
<g>
	<path fill="#158ECE" d="M-204.861,345.971h-56v36.001h56V345.971z M-224.895,372.54v3.432h-15.967
		c0.02-1.949,0.488-3.654,1.402-5.109s2.16-2.721,3.74-3.799c0.76-0.561,1.549-1.102,2.373-1.631c0.824-0.523,1.58-1.09,2.27-1.695
		c0.693-0.607,1.26-1.264,1.703-1.969c0.449-0.703,0.682-1.521,0.703-2.438c0-0.422-0.051-0.877-0.148-1.357
		c-0.102-0.486-0.297-0.932-0.586-1.348c-0.289-0.412-0.691-0.762-1.203-1.043c-0.514-0.279-1.18-0.422-2.004-0.422
		c-0.76,0-1.387,0.158-1.887,0.457c-0.502,0.303-0.904,0.717-1.203,1.244c-0.301,0.525-0.521,1.148-0.67,1.863
		c-0.143,0.721-0.225,1.494-0.25,2.321h-3.807c0-1.298,0.174-2.505,0.52-3.612c0.344-1.111,0.861-2.068,1.551-2.877
		c0.693-0.805,1.531-1.438,2.523-1.896c0.988-0.459,2.145-0.689,3.457-0.689c1.424,0,2.619,0.236,3.574,0.705
		c0.957,0.469,1.732,1.066,2.32,1.781c0.59,0.721,1.01,1.498,1.256,2.338c0.242,0.84,0.365,1.643,0.365,2.402
		c0,0.941-0.145,1.796-0.434,2.556c-0.289,0.764-0.68,1.461-1.172,2.102c-0.488,0.635-1.047,1.223-1.666,1.762
		c-0.623,0.539-1.271,1.047-1.938,1.516c-0.67,0.471-1.338,0.918-2.008,1.344c-0.668,0.426-1.283,0.852-1.855,1.275
		c-0.564,0.428-1.062,0.869-1.48,1.33c-0.428,0.461-0.715,0.945-0.871,1.459H-224.895z"/>
	<path fill="#158ECE" d="M-232.861,309.971c-27.614,0-50,22.385-50,50c0,27.614,22.386,50.001,50,50.001
		c27.613,0,50-22.387,50-50.001C-182.861,332.355-205.248,309.971-232.861,309.971z M-202.861,343.971v40.001h-60v-40.001v-8h60
		V343.971z"/>
</g>
<path fill="#F15A22" d="M211.998-122.668c-27.614,0-50,22.386-50,50.001c0,27.613,22.386,50,50,50c27.613,0,50-22.387,50-50
	C261.998-100.282,239.611-122.668,211.998-122.668z M241.998-65.667h-23v23h-14v-23h-23v-14.001h23v-22.999h14v22.999h23V-65.667z"
	/>
<path fill="#158ECE" d="M57-123.165c-27.614,0-50,22.386-50,50c0,27.613,22.386,50,50,50c27.613,0,50-22.387,50-50
	C107-100.779,84.613-123.165,57-123.165z M68.592-66.79c-2.432,0-4.738-0.498-6.855-1.369L36.592-43.015
	c-0.281,0.285-0.82,0.205-1.201-0.172l-8.258-8.258c-0.381-0.381-0.458-0.916-0.176-1.201l25.071-25.073
	c-0.934-2.178-1.465-4.578-1.465-7.097c0-9.957,8.071-18.028,18.028-18.028c2.205,0,4.289,0.45,6.24,1.176l-7.771,7.771
	c-1.465,1.465-1.465,3.838,0,5.303l5.303,5.303c1.465,1.464,3.838,1.464,5.303,0l7.771-7.771c0.726,1.952,1.18,4.039,1.18,6.247
	C86.617-74.86,78.546-66.79,68.592-66.79z"/>
<g>
	<path fill="#158ECE" d="M150,389.338h-30v-5h-5v45h40v-45h-5V389.338z M150,424.338h-30v-5h30V424.338z M150,414.338h-30v-5h30
		V414.338z M150,404.338h-30v-5h30V404.338z"/>
	<path fill="#158ECE" d="M135,354.338c-27.614,0-50,22.386-50,50c0,27.613,22.386,50,50,50c27.613,0,50-22.387,50-50
		C185,376.724,162.613,354.338,135,354.338z M160,434.338h-50v-55h10v-5h30v5h10V434.338z"/>
</g>
<g>
	<path fill="#158ECE" d="M636.86-112.2v23.4h36v-23.4l-18-18L636.86-112.2z M659.26-113.731l-0.652,2.543
		c-0.585-0.248-1.62-0.765-3.24-0.765c-1.462,0-1.936,0.629-1.936,1.26c0,0.742,0.788,1.215,2.7,1.936
		c2.679,0.944,3.759,2.182,3.759,4.208c0,2.001-1.418,3.712-4.006,4.162v2.295h-2.205v-2.138c-1.508-0.067-2.971-0.472-3.825-0.968
		l0.675-2.632c0.944,0.518,2.273,0.99,3.736,0.99c1.282,0,2.158-0.496,2.158-1.396c0-0.854-0.719-1.394-2.384-1.956
		c-2.409-0.811-4.051-1.936-4.051-4.119c0-1.979,1.396-3.532,3.804-4.005v-2.138h2.205v1.981
		C657.505-114.406,658.518-114.092,659.26-113.731z"/>
	<path fill="#158ECE" d="M654.86-161c-27.614,0-50,22.387-50,50s22.386,50,50,50c27.613,0,50-22.387,50-50S682.474-161,654.86-161z
		 M674.66-110.4V-87h-39.6v-23.4l-5.4-5.399l25.2-25.2l25.2,25.2L674.66-110.4z"/>
</g>
<g>
	<path fill="#55C6D6" d="M-66.911,340.338h-56v36.001h56V340.338z M-86.944,366.907v3.432h-15.967
		c0.02-1.949,0.488-3.654,1.402-5.109s2.16-2.721,3.74-3.799c0.76-0.561,1.549-1.102,2.373-1.631c0.824-0.523,1.58-1.09,2.27-1.695
		c0.693-0.607,1.26-1.264,1.703-1.969c0.449-0.703,0.682-1.521,0.703-2.438c0-0.422-0.051-0.877-0.148-1.357
		c-0.102-0.486-0.297-0.932-0.586-1.348c-0.289-0.412-0.691-0.762-1.203-1.043c-0.514-0.279-1.18-0.422-2.004-0.422
		c-0.76,0-1.387,0.158-1.887,0.457c-0.502,0.303-0.904,0.717-1.203,1.244c-0.301,0.525-0.521,1.148-0.67,1.863
		c-0.143,0.721-0.225,1.494-0.25,2.321h-3.807c0-1.298,0.174-2.505,0.52-3.612c0.344-1.111,0.861-2.068,1.551-2.877
		c0.693-0.805,1.531-1.438,2.523-1.896c0.988-0.459,2.145-0.689,3.457-0.689c1.424,0,2.619,0.236,3.574,0.705
		c0.957,0.469,1.732,1.066,2.32,1.781c0.59,0.721,1.01,1.498,1.256,2.338c0.242,0.84,0.365,1.643,0.365,2.402
		c0,0.941-0.145,1.796-0.434,2.556c-0.289,0.764-0.68,1.461-1.172,2.102c-0.488,0.635-1.047,1.223-1.666,1.762
		c-0.623,0.539-1.271,1.047-1.938,1.516c-0.67,0.471-1.338,0.918-2.008,1.344c-0.668,0.426-1.283,0.852-1.855,1.275
		c-0.564,0.428-1.062,0.869-1.48,1.33c-0.428,0.461-0.715,0.945-0.871,1.459H-86.944z"/>
	<path fill="#55C6D6" d="M-94.911,304.338c-27.614,0-50,22.385-50,50c0,27.614,22.386,50.001,50,50.001
		c27.613,0,50-22.387,50-50.001C-44.911,326.723-67.298,304.338-94.911,304.338z M-64.911,338.338v40.001h-60v-40.001v-8h60V338.338
		z"/>
</g>
<g>
	<polygon fill="#158ECE" points="415.518,367.354 415.518,390.755 451.518,390.755 451.518,367.354 433.518,349.354 	"/>
	<path fill="#158ECE" d="M433.518,318.555c-27.614,0-50,22.387-50,50s22.386,50,50,50c27.613,0,50-22.387,50-50
		S461.131,318.555,433.518,318.555z M453.317,369.154v23.4h-39.6v-23.4l-5.4-5.399l25.2-25.2l25.2,25.2L453.317,369.154z"/>
</g>
<g>
	<path fill="#158ECE" d="M1219.093,215l-30.625,30.625l6.562,6.562v28.438h48.125v-28.438l6.562-6.562L1219.093,215z
		 M1240.968,278.438h-43.75V250l21.875-21.875L1240.968,250V278.438z"/>
	<g>
		<defs>
			<rect id="SVGID_15_" x="1184.093" y="212.812" width="70" height="70"/>
		</defs>
		<clipPath id="SVGID_16_">
			<use xlink:href="#SVGID_15_"  overflow="visible"/>
		</clipPath>
	</g>
</g>
<path fill="#158ECE" d="M377.33,331.888c-0.006-2.705-1.629-4.921-4.1-5.711c-0.32-0.103-0.652-0.17-1.031-0.267
	c4.668-4.639,4.043-11.492,0.088-15.341c-3.936-3.827-10.168-4.038-14.332-0.549c-4.217,3.534-5.6,10.843-0.545,15.88
	c-3.414,0.807-5.102,2.984-5.127,6.504c-3.312-1.118-6.438-0.748-9.414,1.072c-0.984-1.751-2.469-2.796-4.469-3.144
	c4.631-4.683,3.967-11.211,0.463-14.954c-3.678-3.929-9.537-4.589-13.898-1.55c-2.188,1.524-3.658,3.583-4.275,6.182
	c-0.941,3.963,0.152,7.388,2.979,10.329c-0.26,0.057-0.439,0.089-0.617,0.134c-2.805,0.708-4.535,3.002-4.537,6.043
	c-0.004,7.864-0.002,15.729,0.002,23.593c0,0.219,0.012,0.443,0.057,0.657c0.143,0.688,0.713,1.137,1.424,1.139
	c0.709,0.001,1.293-0.449,1.43-1.133c0.053-0.263,0.059-0.539,0.059-0.81c0.004-7.745,0.002-15.49,0.004-23.236
	c0-0.221-0.006-0.441,0.006-0.662c0.082-1.592,1.322-2.802,2.918-2.806c4.416-0.01,8.832-0.008,13.248,0
	c1.189,0.002,2.252,0.754,2.701,1.84c0.131,0.314,0.102,0.541-0.119,0.824c-3.031,3.878-2.988,9.297,0.092,13.147
	c0.295,0.368,0.621,0.712,0.945,1.083c-0.105,0.036-0.184,0.069-0.266,0.089c-3.16,0.771-4.857,2.928-4.859,6.184
	c-0.002,2.922-0.002,5.843,0,8.765c0,0.22,0.006,0.443,0.043,0.659c0.166,0.96,1.182,1.489,2.061,1.071
	c0.668-0.318,0.873-0.896,0.871-1.594c-0.006-3.023,0.045-6.048-0.02-9.069c-0.039-1.908,1.488-3.188,3.15-3.163
	c4.246,0.062,8.494,0.064,12.738-0.001c1.787-0.027,3.262,1.27,3.23,3.254c-0.047,3.04-0.014,6.081-0.01,9.121
	c0,0.942,0.619,1.609,1.469,1.606c0.846-0.004,1.477-0.684,1.479-1.614c0.004-3.159,0.012-6.318-0.002-9.478
	c-0.012-2.68-1.891-5.035-4.492-5.672c-0.201-0.05-0.404-0.092-0.66-0.149c0.188-0.199,0.314-0.333,0.439-0.47
	c3.795-4.119,3.844-10.272,0.111-14.392c-1.352-0.819-1.439-2.107-1.291-3.483c0.004-0.034,0-0.068,0.002-0.103
	c0.082-1.609,1.312-2.845,2.881-2.849c4.451-0.011,8.9-0.004,13.352-0.003c0.768,0,1.418,0.291,1.969,0.816
	c0.688,0.655,0.896,1.475,0.895,2.4c-0.01,7.848-0.008,15.694,0,23.542c0,0.333,0.031,0.687,0.145,0.995
	c0.236,0.645,0.951,1.004,1.609,0.873c0.75-0.148,1.213-0.757,1.213-1.652C377.34,347.854,377.35,339.871,377.33,331.888z"/>
<path fill="#158ECE" d="M1261.423,324.594c-41.421,0-74.999,33.58-74.999,75c0,41.422,33.578,75.002,74.999,75.002
	c41.422,0,75.001-33.58,75.001-75.002C1336.424,358.174,1302.845,324.594,1261.423,324.594z M1273.917,421.088l-4.1,3.365
	l-4.096,2.312l-4.099,1.256l-4.199-1.256l-4.197-2.312l-4.196-3.365l-4.197-4.428l4.197-0.197l4.196-1.254l4.197-2.312l4.199-1.254
	l4.099,1.254l4.096,2.312l4.1,1.254l4.098,0.197L1273.917,421.088z M1291.035,402.635c-0.149,0.48-0.332,0.938-0.545,1.365
	c-0.211,0.43-0.454,0.828-0.72,1.191c-0.269,0.367-1.711,1.846-2.025,2.135c-0.315,0.291-0.65,0.539-1.005,0.74l0.003-0.021
	c-0.013,0.006-0.024,0.018-0.037,0.025c-0.354,0.203-0.725,0.361-1.11,0.467c-0.384,0.109-0.781,0.164-1.189,0.164
	s-0.807-0.055-1.191-0.164c-0.385-0.105-0.757-0.264-1.11-0.467c-0.354-0.205-0.69-0.453-1.005-0.744
	c-0.314-0.289-0.608-0.619-0.875-0.982c-0.268-0.363-0.51-0.762-0.722-1.191c-0.213-0.43-0.396-0.887-0.545-1.367
	c-0.15-0.48-0.267-0.988-0.345-1.512c-0.078-0.525-0.12-1.066-0.12-1.623c0-0.555,0.042-1.1,0.12-1.623s0.194-1.031,0.345-1.51
	c0.149-0.484,0.332-0.941,0.545-1.369c0.212-0.428,0.454-0.826,0.722-1.191c0.267-0.363,0.561-0.693,0.875-0.982
	s0.651-0.539,1.005-0.744c0.354-0.201,0.726-0.361,1.11-0.469s0.783-0.164,1.191-0.164s0.806,0.057,1.189,0.164
	c0.386,0.107,0.757,0.268,1.11,0.469c0.354,0.205,0.689,0.455,1.006,0.744c0.312,0.289,0.604,0.619,0.873,0.982
	c0.269,0.365,0.51,0.764,0.723,1.191c0.212,0.428,0.396,0.885,0.544,1.369c0.118,0.377,0.197,0.781,0.272,1.186
	c2.157-1.701,5.131-4.195,5.131-3.84C1295.255,395.422,1291.188,402.152,1291.035,402.635z M1321.424,404.42v1.367v1.363v1.367
	v1.365v1.367v1.363c0,0.643-0.064,1.268-0.191,1.869c-0.121,0.605-0.306,1.188-0.537,1.742c-0.235,0.555-0.523,1.082-0.856,1.576
	c-0.333,0.496-0.714,0.955-1.133,1.375c-0.418,0.418-0.88,0.797-1.374,1.133c-0.495,0.334-1.021,0.623-1.576,0.855
	c-0.481,0.203-0.985,0.357-1.503,0.48v3.012h-3.797v-17.57c0-27.201-22.133-49.334-49.335-49.334s-49.333,22.133-49.333,49.334
	v17.57c0,6.08,11.11,12.512,28.717,14.717c0.033-0.094,0.05-0.193,0.089-0.283c0.13-0.314,0.293-0.611,0.479-0.889
	c0.188-0.275,0.401-0.535,0.638-0.773c0.236-0.234,0.495-0.449,0.772-0.637c0.279-0.188,0.575-0.35,0.886-0.482
	c0.314-0.131,0.641-0.234,0.979-0.303c0.342-0.07,0.693-0.105,1.054-0.105h1.256h1.256h1.258h1.256h1.255h1.258h1.256h1.259
	c0.36,0,0.709,0.035,1.052,0.105c0.34,0.068,0.667,0.172,0.979,0.303c0.312,0.133,0.609,0.295,0.885,0.482
	c0.279,0.188,0.536,0.402,0.773,0.637c0.236,0.238,0.449,0.498,0.638,0.773c0.188,0.277,0.35,0.574,0.481,0.889
	c0.132,0.311,0.234,0.639,0.304,0.979s0.106,0.691,0.106,1.051c0,0.361-0.037,0.713-0.106,1.053s-0.172,0.666-0.304,0.98
	c-0.132,0.312-0.293,0.607-0.481,0.887c-0.188,0.277-0.401,0.535-0.638,0.771c-0.237,0.236-0.494,0.449-0.773,0.639
	c-0.275,0.188-0.573,0.35-0.885,0.482c-0.312,0.129-0.639,0.232-0.979,0.303c-0.343,0.068-0.691,0.105-1.052,0.105h-1.259h-1.256
	h-1.258h-1.255h-1.256h-1.258h-1.256h-1.256c-0.36,0-0.712-0.037-1.054-0.105c-0.339-0.07-0.665-0.174-0.979-0.303
	c-0.311-0.133-0.606-0.295-0.886-0.482c-0.277-0.189-0.536-0.402-0.772-0.639s-0.449-0.494-0.638-0.771
	c-0.18-0.27-0.334-0.553-0.462-0.855c-19.059-2.328-32.62-9.635-32.62-18.527v-3.166c-0.306-0.096-0.607-0.201-0.898-0.324
	c-0.557-0.234-1.083-0.521-1.578-0.855c-0.493-0.336-0.952-0.715-1.372-1.133c-0.422-0.42-0.801-0.881-1.134-1.375
	s-0.622-1.021-0.856-1.576c-0.231-0.557-0.416-1.137-0.539-1.744c-0.124-0.602-0.189-1.227-0.189-1.867v-1.365v-1.367v-1.365v-1.367
	v-1.365v-1.367v-1.363v-1.365c0-0.643,0.065-1.268,0.189-1.871c0.123-0.604,0.308-1.188,0.539-1.744
	c0.234-0.553,0.523-1.082,0.856-1.574c0.333-0.494,0.712-0.951,1.134-1.373c0.42-0.422,0.879-0.801,1.372-1.135
	c0.495-0.332,1.021-0.621,1.578-0.855c0.555-0.234,1.138-0.418,1.742-0.539c0.398-0.084,0.81-0.129,1.226-0.158
	c6.376-22.193,26.845-38.484,51.061-38.484c22.886,0,42.436,14.543,49.898,34.873v-24.768c-0.072-0.029-0.152-0.039-0.224-0.07
	c-0.349-0.145-0.677-0.326-0.986-0.533c-0.308-0.207-0.596-0.447-0.857-0.707c-0.263-0.262-0.499-0.551-0.71-0.857
	c-0.207-0.311-0.386-0.641-0.533-0.986c-0.148-0.348-0.261-0.713-0.339-1.09c-0.075-0.377-0.115-0.768-0.115-1.168
	s0.04-0.791,0.115-1.168c0.078-0.377,0.19-0.744,0.339-1.09c0.147-0.348,0.326-0.676,0.533-0.986
	c0.211-0.307,0.447-0.596,0.71-0.857c0.262-0.262,0.55-0.5,0.857-0.707c0.31-0.207,0.638-0.389,0.986-0.533
	c0.347-0.148,0.71-0.262,1.088-0.34c0.379-0.076,0.77-0.117,1.169-0.117c0.4,0,0.791,0.041,1.168,0.117
	c0.379,0.078,0.742,0.191,1.089,0.34c0.349,0.145,0.678,0.326,0.985,0.533s0.596,0.445,0.858,0.707
	c0.262,0.262,0.501,0.551,0.71,0.857c0.207,0.311,0.386,0.639,0.534,0.986c0.147,0.346,0.261,0.713,0.338,1.09
	c0.075,0.377,0.116,0.768,0.116,1.168s-0.041,0.791-0.116,1.168c-0.077,0.377-0.19,0.742-0.338,1.09
	c-0.148,0.346-0.327,0.676-0.534,0.986c-0.209,0.307-0.448,0.596-0.71,0.857c-0.263,0.26-0.551,0.5-0.858,0.707
	s-0.637,0.389-0.985,0.533c-0.135,0.057-0.283,0.084-0.423,0.131v28.701c0.296,0.09,0.586,0.195,0.869,0.316
	c0.555,0.236,1.081,0.523,1.576,0.855c0.494,0.334,0.956,0.713,1.374,1.135c0.419,0.42,0.8,0.879,1.133,1.373
	c0.333,0.492,0.621,1.02,0.856,1.574c0.231,0.557,0.416,1.139,0.537,1.744c0.127,0.604,0.191,1.229,0.191,1.871v1.363V404.42z
	 M1236.106,408.066c-0.354-0.201-0.69-0.449-1.004-0.74c-0.314-0.289-1.758-1.768-2.025-2.135c-0.268-0.363-0.509-0.762-0.722-1.191
	c-0.213-0.428-0.396-0.885-0.543-1.365c-0.152-0.482-4.221-7.213-4.221-7.771c0-0.355,2.975,2.139,5.131,3.84
	c0.075-0.404,0.154-0.809,0.271-1.186c0.15-0.484,0.334-0.941,0.545-1.369c0.212-0.428,0.455-0.826,0.722-1.191
	c0.27-0.363,0.562-0.693,0.875-0.982c0.314-0.289,0.651-0.539,1.005-0.744c0.354-0.201,0.725-0.361,1.109-0.469
	s0.782-0.164,1.189-0.164c0.409,0,0.807,0.057,1.193,0.164c0.385,0.107,0.756,0.268,1.108,0.469
	c0.354,0.205,0.691,0.455,1.005,0.744c0.316,0.289,0.609,0.619,0.876,0.982c0.269,0.365,0.51,0.764,0.722,1.191
	c0.214,0.428,0.396,0.885,0.545,1.369c0.151,0.479,0.268,0.986,0.346,1.51s0.118,1.068,0.118,1.623c0,0.557-0.04,1.098-0.118,1.623
	c-0.078,0.523-0.194,1.031-0.346,1.512c-0.148,0.48-0.331,0.938-0.545,1.367c-0.212,0.43-0.453,0.828-0.722,1.191
	c-0.267,0.363-0.56,0.693-0.876,0.982c-0.313,0.291-0.65,0.539-1.005,0.744c-0.353,0.203-0.724,0.361-1.108,0.467
	c-0.387,0.109-0.784,0.164-1.193,0.164c-0.407,0-0.805-0.055-1.189-0.164c-0.385-0.105-0.756-0.264-1.109-0.467
	c-0.013-0.008-0.024-0.02-0.036-0.025L1236.106,408.066z"/>
<path fill="#188ECE" d="M158.417,491.093h45.004v33.75h-45.004V491.093z M192.167,472.343v3.75h-22.496v-3.75h-7.504v3.75h-11.25
	v56.25h60v-56.25h-11.25v-3.75H192.167z"/>
<rect x="165.917" y="498.593" fill="#188ECE" width="7.5" height="7.5"/>
<rect x="188.417" y="498.593" fill="#188ECE" width="7.5" height="7.5"/>
<rect x="177.167" y="498.593" fill="#188ECE" width="7.5" height="7.5"/>
<rect x="165.917" y="509.843" fill="#188ECE" width="7.5" height="7.5"/>
<rect x="188.417" y="509.843" fill="#188ECE" width="7.5" height="7.5"/>
<rect x="177.167" y="509.843" fill="#188ECE" width="7.5" height="7.5"/>
<g>
	<polygon fill="#158ECE" points="1549.921,76.682 1546.595,74.804 1543.267,73.785 1539.857,74.804 1536.45,76.682 1533.042,77.7 
		1529.635,77.858 1533.042,81.454 1536.45,84.187 1539.857,86.062 1543.267,87.083 1546.595,86.062 1549.921,84.187 
		1553.248,81.454 1556.575,77.858 1553.248,77.7 	"/>
	<path fill="#158ECE" d="M1523.479,71.264c0.312,0.088,0.635,0.134,0.966,0.134c0.332,0,0.654-0.046,0.968-0.134
		c0.312-0.086,0.614-0.214,0.9-0.38c0.288-0.166,0.562-0.368,0.816-0.604c0.256-0.234,0.494-0.502,0.711-0.798
		c0.217-0.294,0.413-0.619,0.586-0.967s0.321-0.721,0.442-1.11c0.123-0.391,0.216-0.803,0.28-1.228
		c0.063-0.426,0.097-0.866,0.097-1.317s-0.033-0.893-0.097-1.317c-0.064-0.427-0.157-0.836-0.28-1.228
		c-0.121-0.392-0.27-0.763-0.442-1.11c-0.173-0.349-0.369-0.672-0.586-0.968s-0.455-0.564-0.711-0.798
		c-0.255-0.235-0.528-0.438-0.816-0.604c-0.286-0.164-0.588-0.293-0.9-0.381c-0.313-0.087-0.636-0.133-0.968-0.133
		c-0.331,0-0.654,0.046-0.966,0.133c-0.312,0.088-0.615,0.217-0.901,0.381c-0.288,0.166-0.561,0.368-0.816,0.604
		c-0.254,0.233-0.491,0.502-0.71,0.798c-0.217,0.296-0.414,0.619-0.586,0.968c-0.172,0.348-0.321,0.719-0.442,1.11
		c-0.096,0.308-0.159,0.636-0.221,0.965c-1.752-1.383-4.166-3.408-4.166-3.119c0,0.452,3.303,5.918,3.426,6.31
		c0.121,0.392,0.27,0.763,0.442,1.11c0.173,0.347,0.369,0.671,0.586,0.967c0.217,0.298,1.389,1.498,1.645,1.732
		c0.255,0.235,0.527,0.438,0.815,0.602l-0.003-0.019c0.01,0.007,0.02,0.014,0.03,0.021
		C1522.863,71.05,1523.166,71.178,1523.479,71.264z"/>
	<path fill="#158ECE" d="M1566.407,63.28c-0.061-0.329-0.125-0.657-0.221-0.965c-0.12-0.392-0.27-0.763-0.441-1.11
		c-0.173-0.349-0.369-0.672-0.587-0.968s-0.455-0.564-0.709-0.798c-0.257-0.235-0.528-0.438-0.816-0.604
		c-0.287-0.164-0.589-0.293-0.901-0.381c-0.312-0.087-0.636-0.133-0.967-0.133c-0.332,0-0.654,0.046-0.967,0.133
		c-0.312,0.088-0.615,0.217-0.901,0.381c-0.287,0.166-0.562,0.368-0.815,0.604c-0.256,0.233-0.494,0.502-0.712,0.798
		c-0.216,0.296-0.413,0.619-0.585,0.968c-0.173,0.348-0.321,0.719-0.443,1.11s-0.216,0.801-0.279,1.228
		c-0.063,0.425-0.098,0.866-0.098,1.317s0.034,0.892,0.098,1.317c0.063,0.425,0.157,0.837,0.279,1.228
		c0.122,0.39,0.271,0.763,0.443,1.11c0.172,0.348,0.369,0.673,0.585,0.967c0.218,0.296,0.456,0.563,0.712,0.798
		c0.254,0.235,0.528,0.438,0.815,0.604c0.286,0.166,0.589,0.294,0.901,0.38c0.312,0.088,0.635,0.134,0.967,0.134
		c0.331,0,0.655-0.046,0.967-0.134c0.312-0.086,0.614-0.214,0.901-0.38c0.01-0.007,0.021-0.014,0.03-0.021l-0.003,0.019
		c0.288-0.164,0.56-0.366,0.815-0.602c0.256-0.234,1.427-1.435,1.645-1.732c0.217-0.296,0.413-0.62,0.586-0.967
		c0.172-0.348,0.32-0.719,0.442-1.11s3.425-5.857,3.425-6.31C1570.573,59.872,1568.16,61.897,1566.407,63.28z"/>
	<path fill="#158ECE" d="M1592.684,64.304c-0.112-0.445-0.282-0.875-0.497-1.286c-0.217-0.41-0.483-0.799-0.79-1.164
		c-0.308-0.362-0.658-0.702-1.045-1.012c-0.386-0.311-0.811-0.59-1.269-0.838c-0.454-0.245-0.939-0.458-1.452-0.631
		c-0.237-0.079-0.479-0.148-0.725-0.212V37.417c0.038-0.016,0.079-0.026,0.117-0.043c0.309-0.13,0.601-0.289,0.873-0.474
		s0.527-0.396,0.761-0.628c0.231-0.231,0.443-0.485,0.629-0.76c0.184-0.273,0.341-0.565,0.473-0.873
		c0.131-0.308,0.231-0.63,0.299-0.964s0.104-0.68,0.104-1.035s-0.036-0.701-0.104-1.036c-0.067-0.333-0.168-0.656-0.299-0.965
		c-0.132-0.306-0.289-0.599-0.473-0.871c-0.186-0.274-0.397-0.528-0.629-0.761c-0.233-0.232-0.488-0.442-0.761-0.627
		s-0.564-0.345-0.873-0.474c-0.307-0.13-0.629-0.231-0.964-0.299c-0.334-0.069-0.681-0.104-1.035-0.104
		c-0.354,0-0.7,0.035-1.035,0.104c-0.335,0.067-0.657,0.169-0.964,0.299c-0.309,0.129-0.6,0.289-0.873,0.474
		c-0.274,0.185-0.527,0.395-0.76,0.627s-0.442,0.486-0.63,0.761c-0.185,0.272-0.342,0.565-0.473,0.871
		c-0.131,0.309-0.231,0.632-0.299,0.965c-0.067,0.335-0.104,0.681-0.104,1.036s0.037,0.701,0.104,1.035s0.168,0.656,0.299,0.964
		s0.288,0.6,0.473,0.873c0.188,0.274,0.397,0.528,0.63,0.76c0.232,0.232,0.485,0.443,0.76,0.628c0.26,0.175,0.537,0.324,0.829,0.45
		v14.306c-6.998-15.174-22.345-25.737-40.122-25.737c-20.497,0-37.775,14.037-42.733,33.003c-0.144,0.018-0.289,0.029-0.431,0.053
		c-0.557,0.091-1.094,0.226-1.607,0.398c-0.513,0.173-0.998,0.386-1.453,0.631c-0.456,0.248-0.88,0.527-1.267,0.838
		c-0.389,0.31-0.738,0.649-1.045,1.012c-0.309,0.365-0.575,0.754-0.79,1.164c-0.215,0.411-0.385,0.841-0.498,1.286
		c-0.115,0.446-0.175,0.908-0.175,1.381v1.007V67.7v1.008v1.009v1.008v1.007v1.009v1.008c0,0.474,0.06,0.936,0.175,1.38
		c0.113,0.446,0.283,0.876,0.498,1.286c0.215,0.409,0.481,0.799,0.79,1.162c0.307,0.366,0.656,0.704,1.045,1.015
		c0.387,0.31,0.811,0.589,1.267,0.837c0.455,0.247,0.94,0.458,1.453,0.632c0.197,0.065,0.401,0.121,0.606,0.176v4.115
		c0,8.842,13.062,14.366,27.914,16.109c0.094,0.115,0.179,0.238,0.284,0.344c0.197,0.197,0.413,0.376,0.646,0.533
		s0.479,0.291,0.74,0.403c0.262,0.108,0.535,0.193,0.818,0.252c0.284,0.059,0.578,0.089,0.88,0.089h1.05h1.051h1.05h1.05h1.05h1.05
		h1.052h1.05c0.302,0,0.595-0.03,0.879-0.089s0.558-0.144,0.818-0.252c0.26-0.112,0.509-0.246,0.74-0.403
		c0.233-0.157,0.449-0.336,0.646-0.533c0.198-0.197,0.375-0.413,0.532-0.646s0.293-0.48,0.401-0.741
		c0.111-0.263,0.197-0.535,0.255-0.819s0.089-0.577,0.089-0.88c0-0.301-0.031-0.593-0.089-0.877
		c-0.058-0.285-0.144-0.559-0.255-0.82c-0.108-0.262-0.244-0.508-0.401-0.742c-0.157-0.23-0.334-0.446-0.532-0.644
		c-0.197-0.197-0.413-0.378-0.646-0.533c-0.231-0.157-0.48-0.291-0.74-0.403c-0.261-0.11-0.534-0.195-0.818-0.254
		c-0.284-0.058-0.577-0.087-0.879-0.087h-1.05h-1.052h-1.05h-1.05h-1.05h-1.05h-1.051h-1.05c-0.302,0-0.596,0.029-0.88,0.087
		c-0.283,0.059-0.557,0.144-0.818,0.254c-0.261,0.112-0.508,0.246-0.74,0.403c-0.232,0.155-0.448,0.336-0.646,0.533
		c-0.194,0.193-0.366,0.404-0.521,0.629c-13.406-1.718-22.541-6.522-22.541-10.913V70.086c0-21.521,17.509-39.029,39.028-39.029
		c21.521,0,39.029,17.508,39.029,39.029v14.265h5.138v-4.115c0.203-0.055,0.406-0.11,0.604-0.176
		c0.513-0.174,0.998-0.385,1.452-0.632c0.458-0.248,0.883-0.527,1.269-0.837c0.387-0.311,0.737-0.648,1.045-1.015
		c0.307-0.363,0.573-0.753,0.79-1.162c0.215-0.41,0.385-0.84,0.497-1.286c0.116-0.444,0.177-0.906,0.177-1.38V72.74v-1.009v-1.007
		v-1.008v-1.009V67.7v-1.009v-1.007C1592.86,65.212,1592.8,64.75,1592.684,64.304z"/>
</g>
<g>
	<path fill="#9B8579" d="M1130.883,523.687c-0.455,2.131-4.301,9.607-13.293,10.902c-5.406,0.779-11.943-0.703-17.453,0.079
		c0.598,3.56,2.395,19.126-11.487,20.31c-0.247,8.572-0.205,18.083-6.153,24.998c-9.773,11.366-19.402,6.301-20.643,18.521
		c-1.176,11.604,14.891,5.585,17.144,14.468c-0.601,0.792-0.772,1.018-1.374,1.807h-24.721c-0.865,0-1.728-0.246-2.471-0.723
		c-2.786-1.789-3.626-4.295-2.438-7.797c-1.047-2.096-4.854-5.291-9.129-5.08c-42.041,2.076-57.91-15.461-60.793-14.572
		c-3.021,0.932-3.531,4.902-10.002,1.998c-8.312-3.73-12.529-11.225-20.328-7.877c-0.824,5.197-4.771,12.814-10.18,16.009
		c-0.978,1.083,2.678,7.885,5.727,9.931c1.434,0.964,3.859,1.903,5.832,3.186c2.152,1.398,1.169,4.926-1.357,4.926l-8.181,0.002
		c-1.66,0-3.298-0.412-4.762-1.242c-3.493-1.984-7.068-4.518-8.069-7c-2.116-5.25-6.432-19.456-6.432-19.456
		s-8.318,9.212-9.195,15.062c-0.875,5.853,0.138,6.358,3.166,7.343c0.822,0.27,1.684,0.693,2.454,1.221
		c1.739,1.194,0.896,4.07-1.177,4.07l-7.934,0.002c-6.318,0-11.203-6.009-10.085-12.586c0.015-0.084,0.03-0.167,0.044-0.253
		c1.785-10.112,16.056-22.117,9.783-34.156c-0.967-1.856-14.396,6.177-38.34,10.996c-23.945,4.819-31.99,3.424-21.562-0.804
		c10.431-4.227,40.841-11.322,53.631-22.231c12.791-10.91,23.066-22.288,47.16-20.22s65.828,9.009,82.285,5.432
		c16.457-3.576,34.982-9.645,34.982-27.346c0-1.334,0.119-2.662,0.352-3.958c-0.69-12.905,10.875-17.35,18.202-16.575
		c4.96,0.525,7.469,2.309,8.646,3.551c6.344,1.934,10.034,4.74,13.123,9.018c2.588,3.585,5.982,6.416,9.995,7.937
		C1122.924,516.257,1132.144,519.36,1130.883,523.687"/>
</g>
<path fill="#158ECE" d="M1302.738,560.847c-10.203,0-19.105,5.477-24,13.631c-4.895-8.154-13.797-13.631-24-13.631
	c-15.465,0-28,12.535-28,28c0,7.732,3.043,14.824,8,20c11.26,11.758,44,48,44,48s32.74-36.242,44-48c4.957-5.176,8-12.268,8-20
	C1330.738,573.382,1318.203,560.847,1302.738,560.847 M1319.85,606.08c-9.171,9.577-32.773,35.595-41.111,44.804
	c-8.338-9.209-31.939-35.227-41.111-44.804c-4.442-4.64-6.889-10.759-6.889-17.233c0-13.233,10.766-24,24-24
	c8.487,0,16.178,4.371,20.57,11.689l3.43,5.714l3.43-5.714c4.394-7.318,12.083-11.689,20.57-11.689c13.233,0,24,10.767,24,24
	C1326.738,595.321,1324.292,601.44,1319.85,606.08"/>
<polygon fill="#158ECE" points="1386.742,431.082 1386.742,497.425 1394.738,497.425 1394.738,431.082 1419.914,456.254 
	1425.57,450.599 1390.742,415.768 1355.914,450.599 1361.57,456.254 "/>
<polygon fill="#158ECE" points="1446.738,485.424 1446.738,517.424 1334.738,517.424 1334.738,485.424 1330.738,485.424 
	1330.738,517.424 1330.738,533.424 1334.738,533.424 1446.738,533.424 1450.738,533.424 1450.738,517.424 1450.738,485.424 "/>
<g>
	<defs>
		<rect id="SVGID_17_" x="1032" y="214.987" width="128" height="128"/>
	</defs>
	<clipPath id="SVGID_18_">
		<use xlink:href="#SVGID_17_"  overflow="visible"/>
	</clipPath>
	<path clip-path="url(#SVGID_18_)" fill="#158ECE" d="M1129.938,233.048c-8.684-8.688-20.684-14.061-33.938-14.061
		s-25.254,5.373-33.938,14.061c-8.688,8.686-14.062,20.686-14.062,33.939s5.375,25.254,14.062,33.939
		c8.684,8.688,20.684,14.061,33.938,14.061v24l33.938-36.064c8.688-9.195,14.062-21.902,14.062-35.936
		C1144,253.733,1138.625,241.733,1129.938,233.048 M1127.024,300.182L1100,328.899v-13.912v-4h-4
		c-11.752,0-22.801-4.577-31.109-12.89c-8.312-8.312-12.891-19.358-12.891-31.11s4.578-22.8,12.892-31.111
		c8.308-8.312,19.356-12.889,31.108-12.889c11.753,0,22.801,4.577,31.109,12.889c8.313,8.312,12.891,19.359,12.891,31.111
		C1140,279.536,1135.394,291.323,1127.024,300.182"/>
	<path clip-path="url(#SVGID_18_)" fill="#158ECE" d="M1096,260.987c-3.312,0-6,2.686-6,6s2.688,6,6,6c3.313,0,6-2.686,6-6
		S1099.313,260.987,1096,260.987"/>
	<path clip-path="url(#SVGID_18_)" fill="#158ECE" d="M1116,260.987c-3.313,0-6,2.686-6,6s2.687,6,6,6s6-2.686,6-6
		S1119.313,260.987,1116,260.987"/>
	<path clip-path="url(#SVGID_18_)" fill="#158ECE" d="M1076,260.987c-3.312,0-6,2.686-6,6s2.688,6,6,6s6-2.686,6-6
		S1079.312,260.987,1076,260.987"/>
</g>
</svg>
